<svg width="60" height="70" viewBox="0 0 60 70" fill="none" xmlns="http://www.w3.org/2000/svg">
<path d="M29.9832 63.2609L48.3082 52.697L54.7739 48.9784L54.7962 25.4496L60 22.4346L59.9553 51.9711L29.9609 69.2576L0 51.9041L0.0335012 22.4569L5.21496 25.4608L5.19263 48.9114L10.1061 51.759H10.1173L25.751 60.8265L29.9832 63.2609Z" fill="#E31D39"/>
<path d="M37.7667 49.023L41.4741 46.8789L42.9928 47.7611V47.7723L46.7114 49.9163L32.5852 58.057V26.2871L30.028 24.813L27.3591 26.3317V58.0459L13.3223 49.9051L18.5484 46.8789L22.1665 48.9783V24.0313L30.028 19.4976L37.7667 23.9755V49.023Z" fill="#E31D39"/>
<path d="M30.0503 0L59.598 17.1078L54.4165 20.1005L30.0391 5.98548L5.56116 20.0782L0.36853 17.0743L30.0503 0Z" fill="#E31D39"/>
<path d="M42.9927 23.2608L30.0279 15.7454L16.9403 23.2831L13.9922 24.9693L8.77722 21.9319L30.0391 9.7041L51.2005 21.9542L45.9855 24.9805L42.9927 23.2608Z" fill="#E31D39"/>
<path d="M13.7018 44.0873L8.48686 47.1023L8.40869 47.0577L8.41986 27.3257L13.646 30.3519V44.0426L13.7018 44.0873Z" fill="#E31D39"/>
<path d="M51.6024 27.3145L51.5801 47.1134L51.5689 47.1246L46.3204 44.0984L46.3428 44.0872L46.3539 30.3519L51.6024 27.3145Z" fill="#E31D39"/>
</svg>
