<svg width="11" height="8" viewBox="0 0 11 8" fill="none" xmlns="http://www.w3.org/2000/svg">
<path fill-rule="evenodd" clip-rule="evenodd" d="M10.8536 3.32824C11.0488 3.5235 11.0488 3.84008 10.8536 4.03534L7.67157 7.21732C7.47631 7.41258 7.15973 7.41258 6.96447 7.21732C6.7692 7.02206 6.7692 6.70548 6.96447 6.51022L9.29289 4.18179L0.5 4.18179C0.223858 4.18179 2.97748e-07 3.95793 3.21889e-07 3.68179C3.4603e-07 3.40565 0.223858 3.18179 0.5 3.18179L9.29289 3.18179L6.96447 0.853362C6.7692 0.6581 6.7692 0.341517 6.96447 0.146255C7.15973 -0.0490075 7.47631 -0.0490075 7.67157 0.146255L10.8536 3.32824Z" fill="white"/>
</svg>
