<svg width="50" height="50" viewBox="0 0 50 50" fill="none" xmlns="http://www.w3.org/2000/svg">
<g clip-path="url(#clip0_753_24)">
<path d="M42.7529 6.54992C38.5288 2.32586 32.9124 -0.000236253 26.939 1.79973e-08C25.9601 1.79973e-08 25.1669 0.793399 25.1669 1.77204C25.1669 2.75067 25.9603 3.54407 26.939 3.54407C31.9659 3.54384 36.692 5.50134 40.2467 9.05605C43.8017 12.6108 45.7592 17.3371 45.7589 22.3643C45.7589 23.3429 46.5521 24.1363 47.531 24.1363C48.5096 24.1363 49.303 23.3429 49.303 22.3645C49.3032 16.3904 46.9772 10.774 42.7529 6.54992Z" fill="white"/>
<path d="M35.4634 22.3645C35.4634 23.3431 36.2568 24.1365 37.2357 24.1363C38.2143 24.1363 39.0075 23.3429 39.0075 22.3643C39.007 15.7109 33.5931 10.2972 26.9392 10.2962V10.2962C25.9606 10.2962 25.1672 11.0894 25.1669 12.068C25.1669 13.0467 25.9601 13.8401 26.9387 13.8403C31.6389 13.841 35.4629 17.6648 35.4634 22.3645Z" fill="white"/>
<path d="M31.5422 31.3995C28.8412 31.2597 27.4652 33.2684 26.8052 34.2334C26.2526 35.0412 26.4596 36.1439 27.2674 36.6965C28.0752 37.2491 29.1779 37.0422 29.7305 36.2343C30.5102 35.0943 30.8634 34.915 31.3426 34.9377C32.8762 35.118 38.9165 39.5443 39.5214 40.9284C39.6731 41.3359 39.6674 41.7355 39.5046 42.2215C38.8704 44.1036 37.8207 45.4263 36.4683 46.0462C35.1834 46.6353 33.6082 46.5819 31.9139 45.8924C25.5873 43.3138 20.0599 39.7151 15.4857 35.1962C15.4838 35.1943 15.4819 35.1926 15.4803 35.1907C10.9708 30.621 7.37877 25.1008 4.80436 18.7838C4.11468 17.0881 4.06128 15.5126 4.65031 14.228C5.27028 12.8756 6.59293 11.8259 8.47341 11.1924C8.96108 11.0289 9.35991 11.0237 9.76369 11.174C11.1527 11.781 15.5788 17.821 15.7574 19.3374C15.7829 19.8345 15.6022 20.1875 14.4631 20.9658C13.6551 21.5177 13.4474 22.6204 13.9996 23.4284C14.5515 24.2365 15.6539 24.4439 16.4622 23.892C17.4276 23.2328 19.4359 21.8605 19.2965 19.1503C19.143 16.3193 13.6359 8.82214 11.0046 7.85461C9.83434 7.41845 8.60336 7.41089 7.34451 7.83334C4.51209 8.78717 2.46645 10.4879 1.42875 12.7513C0.42223 14.9472 0.454126 17.495 1.52207 20.1204C4.27723 26.8806 8.132 32.7957 12.9791 37.7018C12.9909 37.7139 13.003 37.7257 13.0153 37.7373C17.9179 42.5754 23.8261 46.4231 30.5773 49.1749C31.9293 49.7247 33.2607 50 34.5339 50C35.7328 50 36.8806 49.7562 37.9452 49.268C40.2089 48.2306 41.9094 46.1852 42.8639 43.3508C43.2854 42.0944 43.2786 40.8639 42.8457 39.699C41.8749 37.0606 34.3777 31.5536 31.5422 31.3995Z" fill="white"/>
</g>
<defs>
<clipPath id="clip0_753_24">
<rect width="50" height="50" fill="white"/>
</clipPath>
</defs>
</svg>
