<svg width="940" height="904" viewBox="0 0 940 904" fill="none" xmlns="http://www.w3.org/2000/svg">
<path d="M716.2 499.2C714.3 502.9 709.8 504.5 706.1 502.6C704.2 501.7 702.8 500.1 702.2 498.1C701.3 494.9 699.2 490.1 695 488C688.6 484.8 681.5 487.8 677.8 495.1C674.2 502.5 676.2 509.9 682.7 513.1C686.8 515.2 691.9 513.9 695 512.7C696.9 512 699.1 512.1 701 513C704.7 514.9 706.2 519.4 704.4 523.1L681.7 569L784.7 617.3L807.7 568.7C809.5 565 814 563.5 817.8 565.3C819.6 566.2 821 567.9 821.6 569.8C822.6 573 824.6 577.8 828.8 579.9C835.3 583.1 842.4 580.1 846 572.8C849.6 565.4 847.7 558 841.2 554.8C837 552.7 831.9 554 828.9 555.2C826.9 556 824.7 555.8 822.9 554.9C819.2 553.1 816.8 548.7 818.6 544.9L838 503.6L736.1 455.8L716.2 499.2Z" fill="#EBEBEB"/>
<path d="M566.1 19.1L521.1 32.2L532.6 72.1C533.6 75.8 537.9 77.4 541.5 76.4C543.3 75.9 544.9 74.7 545.8 73C547.2 70.4 549.9 66.4 554 65.3C560.3 63.6 566.2 67.5 568.1 74.8C570 82 566.9 88.3 560.5 90C556.4 91 552.1 89 549.6 87.4C548 86.4 546.1 86.1 544.2 86.6C540.6 87.6 538.4 91.3 539.4 95L552.8 142L619 123L657.9 111.8L662.7 110.4L650.7 65.4C649.7 61.7 645.9 59.5 642.3 60.5C640.5 61 638.9 62.2 638 63.9C636.6 66.5 633.9 70.5 629.8 71.6C623.5 73.3 617.6 69.4 615.7 62.2C613.8 54.9 616.9 48.7 623.3 47C627.4 45.9 631.7 47.9 634.2 49.5C635.8 50.6 637.7 50.8 639.6 50.3C643.2 49.4 645.4 45.6 644.4 41.9L631.9 0L566.1 19.1Z" fill="#F5F5F5"/>
<path d="M461.1 533.9L421.4 536.7L423.8 572C424 575.2 427.2 577.3 430.5 577.2C432.1 577.1 433.6 576.3 434.6 575.1C436.3 573.1 439.2 570.4 442.8 570.2C448.4 569.9 452.5 574.2 452.9 580.5C453.2 586.9 449.5 591.5 443.9 591.8C440.3 592 437.1 589.5 435.3 587.7C434.1 586.6 432.5 586 430.9 586.1C427.7 586.3 425.2 589 425.4 592.2L428.1 633.8L486.7 629.7L521 627.3L525.2 627L523.3 587.4C523.1 584.2 520.4 581.7 517.1 581.9C515.5 581.9 514 582.7 513 583.9C511.4 585.9 508.4 588.7 504.8 588.9C499.2 589.1 495.1 584.9 494.8 578.5C494.4 572.2 498.1 567.5 503.7 567.2C507.3 567 510.5 569.5 512.4 571.3C513.5 572.4 515.1 573 516.7 572.9C519.9 572.7 522.4 570 522.2 566.8L519.3 529.7L461.1 533.9Z" fill="#EBEBEB"/>
<path d="M189.1 511.1C170 521.1 155.2 538.2 144.7 557C134.1 575.8 127.3 596.5 120.5 617L114.6 722.8C136.9 684.8 154.9 640.2 159.7 596.5C154.767 596.033 149.8 595.567 144.8 595.1C154.8 593.6 163.2 586.4 168.5 577.9C173.8 569.3 176.5 559.4 179.2 549.7C173.133 550.633 167.1 551.533 161.1 552.4C175.3 543 185.5 527.8 189.1 511.1Z" fill="#E0E0E0"/>
<path d="M111.3 747.6C111.3 747.6 62.9001 689.6 63.5001 634.3H83.0001C83.0001 634.3 61.8001 620.3 63.5001 612.5C65.2001 604.7 65.7001 575 65.7001 575L83.6001 579.5C83.6001 579.5 70.2001 572.8 68.5001 562.2C66.8001 551.6 72.4001 502.4 72.4001 502.4C72.4001 502.4 94.2001 525.3 100.9 548.8C107.6 572.3 125.2 599.6 120.1 671.2C114.9 742.7 111.3 747.6 111.3 747.6Z" fill="#EBEBEB"/>
<path d="M135.9 753C135.9 753 188.3 718.1 200 673.5L184.3 669.2C184.3 669.2 204.4 662.6 204.8 656C205.1 649.3 211.2 625.4 211.2 625.4L195.8 625.1C195.8 625.1 208.1 622.6 211.7 614.4C215.4 606.3 221.7 565.5 221.7 565.5C221.7 565.5 199.1 579.1 188.6 596.6C178.1 614 157.9 632.1 146.4 690.8C134.9 749.4 135.9 753 135.9 753Z" fill="#EBEBEB"/>
<path d="M85.6001 552.9C85.6668 552.9 85.7334 553.1 85.8001 553.5C85.9334 553.967 86.1001 554.567 86.3001 555.3C86.6334 556.967 87.1334 559.267 87.8001 562.2C88.5001 565.2 89.3001 568.8 90.1001 573.1C91.0001 577.4 92.0001 582.2 93.0001 587.6C95.0001 598.3 97.2001 611.2 99.5001 625.5C101.7 639.8 103.9 655.5 105.8 672.1C107.7 688.7 109.2 704.6 110.3 719C111.4 733.4 112.2 746.4 112.6 757.4C112.9 762.8 113 767.8 113.1 772.1C113.3 776.5 113.3 780.2 113.4 783.3C113.4 786.3 113.4 788.633 113.4 790.3C113.4 791.1 113.4 791.733 113.4 792.2C113.4 792.6 113.4 792.8 113.4 792.8C113.333 792.8 113.3 792.6 113.3 792.2C113.3 791.733 113.267 791.1 113.2 790.3C113.133 788.633 113.067 786.3 113 783.3C112.9 780.2 112.7 776.5 112.5 772.1C112.4 767.8 112.2 762.9 111.9 757.4C111.3 746.5 110.5 733.5 109.4 719.1C108.2 704.7 106.7 688.8 104.8 672.2C102.8 655.7 100.7 639.9 98.5001 625.6C96.3001 611.3 94.2001 598.5 92.2001 587.7C91.3001 582.3 90.3001 577.5 89.5001 573.2C88.7001 568.9 88.0001 565.3 87.4001 562.3C86.8001 559.3 86.3334 557 86.0001 555.4C85.8668 554.6 85.7668 553.967 85.7001 553.5C85.6334 553.1 85.6001 552.9 85.6001 552.9Z" fill="#E0E0E0"/>
<path d="M104.6 783.1C104.6 783.1 60.3001 732.8 46.5001 702.4L56.9 698C49.4 699.2 41.7 696 35.9 691C30 686.1 25.7 679.7 21.5 673.3L35.2001 671C22.8001 667.5 11.8 659 5.30005 647.8C21.5 650.5 36.1001 659.4 48.1001 670.4C57.9001 679.4 66.1001 689.8 74.0001 700.5C77.9001 705.7 81.3001 711.2 84.1001 717C91.6001 732.4 104.6 764.6 104.6 783.1Z" fill="#E0E0E0"/>
<path d="M200.7 594.8C200.7 594.8 200.633 594.967 200.5 595.3C200.3 595.633 200.067 596.1 199.8 596.7C199.133 598.1 198.233 599.967 197.1 602.3C194.8 607.2 191.4 614.2 187.3 622.9C179.2 640.3 168.5 664.6 157.9 692C147.3 719.4 138.9 744.6 133.2 763C130.3 772.2 128.1 779.6 126.6 784.8C125.867 787.333 125.267 789.3 124.8 790.7C124.6 791.366 124.433 791.9 124.3 792.3C124.233 792.633 124.167 792.8 124.1 792.8C124.1 792.8 124.133 792.6 124.2 792.2C124.333 791.8 124.467 791.3 124.6 790.7C125 789.233 125.533 787.233 126.2 784.7C127.6 779.5 129.7 772 132.5 762.8C138 744.3 146.3 719 156.9 691.6C167.5 664.2 178.4 639.9 186.7 622.6C190.8 613.9 194.3 606.9 196.8 602.1C198 599.767 198.933 597.933 199.6 596.6C199.933 596.067 200.2 595.6 200.4 595.2C200.6 594.867 200.7 594.733 200.7 594.8Z" fill="#E0E0E0"/>
<path d="M108.4 804.6C108.333 804.6 108.267 804.3 108.2 803.7C108.067 802.966 107.9 802.066 107.7 801C107.4 798.7 106.8 795.4 106 791.2C105.2 787.1 104 782.3 102.6 776.9C101.1 771.6 99.2002 765.8 97.0002 759.8C94.7002 753.8 92.3001 748.3 89.9001 743.3C87.4001 738.3 85.1001 733.9 82.9001 730.3C80.8001 726.7 79.1001 723.8 77.8001 721.8C77.2668 720.867 76.8001 720.1 76.4001 719.5C76.0668 718.966 75.9001 718.7 75.9001 718.7C75.9668 718.633 76.1668 718.867 76.5002 719.4C76.9668 720 77.5002 720.733 78.1002 721.6C79.5002 723.5 81.4002 726.3 83.6002 729.9C85.8002 733.5 88.2001 737.9 90.7001 742.8C93.2001 747.8 95.7002 753.4 98.0002 759.4C100.2 765.5 102 771.3 103.5 776.7C104.9 782.1 106 787 106.7 791.1C107.4 795.2 107.9 798.6 108.1 801C108.233 802.066 108.333 802.966 108.4 803.7C108.4 804.3 108.4 804.6 108.4 804.6Z" fill="#E0E0E0"/>
<path d="M166.9 812.6H69.9001V792.8H166.9V812.6Z" fill="#E0E0E0"/>
<path d="M79.1001 812.6L89.6001 874.1H148.2L158 812.6H79.1001Z" fill="#E0E0E0"/>
<path d="M160.9 812.6C160.9 812.8 142.6 813.1 119.9 813.1C97.3 813.1 79 812.8 79 812.6C79 812.3 97.3 812 119.9 812C142.6 812 160.9 812.3 160.9 812.6Z" fill="#EBEBEB"/>
<path fill-rule="evenodd" clip-rule="evenodd" d="M509.1 315.5C514 312.5 519.2 310.3 524.6 308.7L527.8 293.3L553.8 292.9L557.6 308.1C563 309.5 568.4 311.6 573.4 314.3L586.5 305.7L605.2 323.8L597.1 337.2C600.1 342.2 602.3 347.4 603.8 352.8L619.2 356L619.7 382L604.4 385.7C603.1 391.2 601 396.5 598.2 401.5L606.8 414.7L588.8 433.4L575.3 425.2C570.4 428.2 565.2 430.4 559.8 432L556.6 447.4L530.6 447.8L526.8 432.6C521.4 431.2 516.1 429.2 511 426.4L497.9 435L479.2 416.9L487.3 403.5C484.4 398.5 482.1 393.3 480.6 387.9L465.2 384.7L464.7 358.7L480 355C481.3 349.5 483.4 344.2 486.2 339.2L477.6 326L495.7 307.3L509.1 315.5ZM522.9 350.2C512.2 361.3 512.5 378.9 523.6 389.6C534.7 400.3 552.4 400 563.1 388.9C573.8 377.8 573.5 360.2 562.4 349.5C551.3 338.8 533.6 339.1 522.9 350.2Z" fill="#EBEBEB"/>
<path fill-rule="evenodd" clip-rule="evenodd" d="M803.2 130.7C807.8 127.9 812.6 125.9 817.7 124.4L820.7 110.1L844.9 109.7L848.3 123.9C853.4 125.1 858.3 127.1 863 129.7L875.2 121.6L892.7 138.5L885.1 151C887.8 155.5 889.9 160.4 891.4 165.4L905.7 168.4L906.1 192.6L891.9 196.1C890.7 201.2 888.7 206.1 886.1 210.8L894.1 223L877.3 240.4L864.8 232.8C860.3 235.6 855.4 237.7 850.4 239.1L847.4 253.4L823.2 253.9L819.7 239.7C814.6 238.4 809.7 236.5 805 233.9L792.8 241.9L775.4 225.1L783 212.6C780.2 208 778.1 203.1 776.7 198.1L762.3 195.1L761.9 170.9L776.1 167.5C777.4 162.4 779.3 157.4 781.9 152.8L773.9 140.5L790.7 123.1L803.2 130.7ZM816.1 163C806.1 173.3 806.4 189.7 816.7 199.7C827.1 209.6 843.5 209.3 853.5 199C863.4 188.7 863.1 172.3 852.8 162.3C842.5 152.4 826.1 152.7 816.1 163Z" fill="#EBEBEB"/>
<path fill-rule="evenodd" clip-rule="evenodd" d="M51.1001 357C55.6001 354.2 60.5001 352.1 65.5001 350.7L68.5001 336.4L92.7001 335.9L96.2001 350.1C101.3 351.4 106.2 353.3 110.9 355.9L123.1 347.9L140.5 364.7L132.9 377.2C135.7 381.8 137.8 386.7 139.2 391.7L153.5 394.7L154 418.9L139.8 422.3C138.5 427.4 136.6 432.4 134 437L142 449.3L125.2 466.7L112.7 459.1C108.1 461.8 103.2 463.9 98.2001 465.4L95.2001 479.7L71.0001 480.1L67.5001 465.9C62.5001 464.7 57.5 462.7 52.9 460.1L40.6001 468.2L23.2001 451.3L30.8 438.8C28 434.3 25.9 429.4 24.5 424.4L10.2001 421.4L9.80005 397.2L24 393.7C25.2 388.6 27.2 383.7 29.8 379L21.7001 366.8L38.5001 349.4L51.1001 357ZM64.0001 389.2C54.1001 399.5 54.4001 416 64.7001 425.9C75.0001 435.9 91.4 435.6 101.4 425.3C111.4 415 111.1 398.5 100.8 388.6C90.4001 378.6 74.0001 378.9 64.0001 389.2Z" fill="#EBEBEB"/>
<path fill-rule="evenodd" clip-rule="evenodd" d="M135.6 158.4C138.7 156.5 142 155.1 145.4 154.1L147.4 144.4L163.8 144.1L166.1 153.7C169.6 154.6 172.9 155.9 176.1 157.6L184.3 152.2L196.1 163.6L191 172C192.8 175.1 194.3 178.4 195.2 181.8L204.9 183.8L205.2 200.2L195.6 202.6C194.7 206 193.4 209.3 191.7 212.5L197.1 220.8L185.7 232.5L177.3 227.4C174.2 229.3 170.9 230.7 167.5 231.7L165.5 241.3L149.1 241.6L146.8 232C143.3 231.2 140 229.9 136.8 228.1L128.6 233.5L116.8 222.2L121.9 213.7C120.1 210.6 118.6 207.3 117.7 203.9L108 201.9L107.7 185.6L117.3 183.2C118.2 179.8 119.5 176.4 121.2 173.3L115.8 165L127.2 153.2L135.6 158.4ZM144.3 180.2C137.5 187.2 137.7 198.3 144.7 205C151.7 211.8 162.8 211.6 169.5 204.6C176.3 197.6 176.1 186.5 169.1 179.8C162.1 173.1 151 173.3 144.3 180.2Z" fill="#EBEBEB"/>
<path fill-rule="evenodd" clip-rule="evenodd" d="M76.2 53.1C79 51.4 82.1 50.1 85.2 49.2L87 40.3L102.1 40L104.3 48.9C107.4 49.7 110.5 50.9 113.4 52.5L121 47.5L131.8 57.9L127.1 65.7C128.8 68.6 130.1 71.6 131 74.7L139.9 76.6L140.2 91.6L131.4 93.8C130.6 97 129.4 100 127.8 102.9L132.8 110.5L122.3 121.4L114.5 116.7C111.7 118.4 108.6 119.7 105.5 120.6L103.7 129.5L88.6 129.7L86.4 120.9C83.3 120.1 80.2 118.9 77.3 117.3L69.7 122.3L58.9 111.8L63.6 104.1C61.9 101.2 60.6 98.2 59.7 95.1L50.8 93.2L50.5 78.2L59.3 76C60.1 72.8 61.3 69.8 62.9 66.9L58 59.2L68.4 48.4L76.2 53.1ZM84.2 73.2C78 79.6 78.2 89.8 84.6 96C91.1 102.2 101.3 102 107.5 95.6C113.7 89.2 113.5 79 107.1 72.8C100.7 66.6 90.4 66.7 84.2 73.2Z" fill="#F5F5F5"/>
<path fill-rule="evenodd" clip-rule="evenodd" d="M804.4 362C807.2 360.3 810.2 359 813.4 358.1L815.2 349.2L830.3 348.9L832.4 357.8C835.6 358.6 838.7 359.8 841.6 361.4L849.2 356.4L860 366.8L855.3 374.6C857 377.5 858.3 380.5 859.2 383.6L868.1 385.5L868.4 400.5L859.5 402.7C858.8 405.9 857.6 408.9 856 411.8L860.9 419.4L850.5 430.3L842.7 425.6C839.9 427.3 836.8 428.6 833.7 429.5L831.9 438.4L816.8 438.6L814.6 429.8C811.5 429 808.4 427.8 805.5 426.2L797.9 431.2L787.1 420.7L791.8 413C790.1 410.1 788.7 407.1 787.9 404L779 402.1L778.7 387L787.5 384.9C788.3 381.7 789.5 378.7 791.1 375.7L786.1 368.1L796.6 357.3L804.4 362ZM812.4 382.1C806.2 388.5 806.4 398.7 812.8 404.9C819.2 411.1 829.5 410.9 835.7 404.5C841.8 398.1 841.7 387.9 835.3 381.7C828.8 375.5 818.6 375.6 812.4 382.1Z" fill="#F5F5F5"/>
<path fill-rule="evenodd" clip-rule="evenodd" d="M617 215.9C620.7 214.2 624.6 213 628.5 212.3L631.9 201.6L650.4 203.2L651.9 214.3C655.7 215.7 659.3 217.5 662.7 219.9L672.6 214.7L684.6 228.9L677.8 237.9C679.6 241.6 680.8 245.5 681.5 249.4L692.2 252.8L690.6 271.3L679.5 272.8C678.1 276.6 676.2 280.2 673.9 283.6L679 293.5L664.8 305.5L655.9 298.7C652.2 300.4 648.3 301.7 644.4 302.4L641 313L622.5 311.4L620.9 300.3C617.2 299 613.6 297.1 610.2 294.8L600.2 299.9L588.3 285.7L595.1 276.8C593.3 273.1 592.1 269.2 591.4 265.2L580.7 261.8L582.3 243.3L593.4 241.8C594.8 238 596.6 234.4 599 231.1L593.9 221.1L608.1 209.2L617 215.9ZM624.2 241.5C615.8 248.6 614.7 261.1 621.8 269.5C628.9 277.9 641.5 279 649.9 271.9C658.3 264.9 659.4 252.3 652.3 243.9C645.2 235.5 632.6 234.4 624.2 241.5Z" fill="#F5F5F5"/>
<path d="M936.4 875.9C936.4 876.2 726.9 876.4 468.5 876.4C210 876.4 0.5 876.2 0.5 875.9C0.5 875.6 210 875.4 468.5 875.4C726.9 875.4 936.4 875.6 936.4 875.9Z" fill="#263238"/>
<path d="M480 866.1C480.1 863.5 479.7 858.9 476.2 855.2C473.4 852.2 470.1 851.4 470.2 845.6C470.4 836.7 477.7 830.6 487.9 830.8C498 831 505.1 837.4 504.9 846.3C504.8 852.1 497.7 853.6 496.3 857.4C495.5 859.7 494.4 863.8 494.3 866.4C494.2 871.5 498.3 875.8 503.5 875.9L563 875.3L562.9 782.1L562.7 718.3H506.1C501 718.2 497.3 723.2 497.2 728.3C497.1 730.9 498.1 733.4 500 735.2C502.9 738 507.1 743 507 748.8C506.8 757.8 499.5 763.9 489.3 763.7C479.2 763.5 472.1 757.1 472.3 748.1C472.4 742.3 476.7 737.5 479.8 734.8C481.7 733.1 482.8 730.6 482.8 728.1C482.9 722.9 478.8 718.6 473.7 718.5L407.1 718.3V812.2V867.2V874L470.5 875.3C475.6 875.4 479.9 871.3 480 866.1Z" fill="#E0E0E0"/>
<g opacity="0.3">
<path d="M480 866.1C480.1 863.5 479.7 858.9 476.2 855.2C473.4 852.2 470.1 851.4 470.2 845.6C470.4 836.7 477.7 830.6 487.9 830.8C498 831 505.1 837.4 504.9 846.3C504.8 852.1 497.7 853.6 496.3 857.4C495.5 859.7 494.4 863.8 494.3 866.4C494.2 871.5 498.3 875.8 503.5 875.9L563 875.3L562.9 782.1L562.7 718.3H506.1C501 718.2 497.3 723.2 497.2 728.3C497.1 730.9 498.1 733.4 500 735.2C502.9 738 507.1 743 507 748.8C506.8 757.8 499.5 763.9 489.3 763.7C479.2 763.5 472.1 757.1 472.3 748.1C472.4 742.3 476.7 737.5 479.8 734.8C481.7 733.1 482.8 730.6 482.8 728.1C482.9 722.9 478.8 718.6 473.7 718.5L407.1 718.3V812.2V867.2V874L470.5 875.3C475.6 875.4 479.9 871.3 480 866.1Z" fill="black"/>
</g>
<path d="M468.3 866.1C468.3 863.5 467.3 861 465.5 859.3C462.5 856.4 458.4 851.4 458.5 845.6C458.7 836.7 466 830.6 476.1 830.8C486.3 831 493.3 837.4 493.2 846.3C493.1 852.1 488.7 856.9 485.7 859.6C483.7 861.4 482.7 863.8 482.6 866.4C482.5 871.5 486.6 875.8 491.8 875.9L551.2 875.3L551.1 782.1L551 718.3H494.4C489.2 718.2 485.6 723.2 485.5 728.3C485.4 730.9 486.4 733.4 488.3 735.2C491.2 738 495.3 743 495.2 748.8C495 757.8 487.7 763.9 477.6 763.7C467.4 763.5 460.4 757.1 460.5 748.1C460.7 742.3 465 737.5 468 734.8C470 733.1 471.1 730.6 471.1 728.1C471.2 722.9 467.1 718.6 461.9 718.5L395.3 718.3V812.2V867.2V874L458.7 875.3C463.9 875.4 468.2 871.3 468.3 866.1Z" fill="#EBEBEB"/>
<path d="M468.3 866.1C468.3 866.1 468.3 866.6 468.2 867.4C468.1 868.3 467.7 869.6 466.8 871.1C465.9 872.5 464.2 874.2 461.7 875C460.5 875.4 459.1 875.5 457.6 875.4C456.133 875.333 454.567 875.3 452.9 875.3C439.5 875.1 420 874.7 395.3 874.3H395V874C395 834.6 394.9 780.8 394.9 718.3V717.9H395.4C408.4 717.9 421.833 717.933 435.7 718C442.633 718 449.633 718 456.7 718C458.5 718 460.267 718 462 718C463.9 718.1 465.8 718.7 467.4 719.8C470.5 721.9 472.2 726 471.4 729.8C471.1 731.7 470.2 733.4 468.8 734.8C467.4 736.1 466.1 737.3 465 738.7C462.8 741.5 461 744.8 461.1 748.4C461 752 462.4 755.6 464.9 758.2C467.4 760.8 471 762.4 474.6 762.9C478.2 763.4 482.1 763.2 485.5 761.8C488.9 760.5 491.9 757.9 493.4 754.5C495 751.1 495.1 747.1 493.7 743.7C493 741.9 492 740.3 490.8 738.8C490.2 738.067 489.567 737.333 488.9 736.6C488.3 735.9 487.5 735.3 486.9 734.5C485.8 733.1 485.2 731.4 485 729.6C484.8 727.9 485.1 726.2 485.6 724.5C486.8 721.3 489.5 718.4 493.1 717.9C494.8 717.7 496.4 717.8 498.1 717.8H503C506.2 717.8 509.433 717.8 512.7 717.8C525.7 717.8 538.467 717.8 551 717.8H551.5V718.3C551.5 776.1 551.6 829.4 551.7 875.3V875.8H551.3C538.167 875.867 525.667 875.967 513.8 876.1C507.867 876.167 502.1 876.2 496.5 876.2C495.1 876.2 493.7 876.233 492.3 876.3C490.9 876.3 489.5 876 488.2 875.5C485.5 874.4 483.6 872.1 482.7 869.5C481.9 866.9 482.2 864 483.6 861.7C484.2 860.6 485.2 859.6 486.1 858.8C487.033 858 487.867 857.133 488.6 856.2C490.2 854.3 491.4 852.2 492.2 850C493 847.9 493 845.5 492.6 843.3C491.9 838.9 488.9 835.3 485.3 833.3C481.7 831.3 477.7 830.8 474 831.1C470.3 831.3 466.8 832.5 464.2 834.5C461.6 836.5 459.9 839.3 459.2 842.1C458.4 844.8 458.6 847.6 459.3 849.9C460.1 852.2 461.3 854.1 462.5 855.7C463.7 857.3 464.9 858.6 466 859.7C467 860.8 467.6 862 467.9 863C468.2 864 468.2 864.8 468.3 865.3C468.3 865.8 468.3 866.1 468.3 866.1C468.2 866.1 468.4 865 467.7 863C467.4 862.1 466.9 860.9 465.8 859.8C464.8 858.7 463.5 857.5 462.3 855.9C461 854.3 459.8 852.4 459 850C458.2 847.7 458.1 844.8 458.8 842C459.5 839.1 461.3 836.2 464 834.2C466.6 832.1 470.2 830.9 474 830.6C477.7 830.3 481.9 830.8 485.6 832.9C489.3 834.8 492.5 838.6 493.2 843.2C493.6 845.5 493.6 847.9 492.8 850.2C492 852.5 490.7 854.7 489.1 856.6C488.3 857.533 487.433 858.433 486.5 859.3C485.6 860.1 484.7 861 484.1 862.1C482.9 864.2 482.6 866.9 483.4 869.3C484.2 871.7 486 873.8 488.4 874.8C490.9 875.9 493.7 875.4 496.5 875.5C502.1 875.433 507.867 875.367 513.8 875.3C525.667 875.167 538.133 875.033 551.2 874.9L550.8 875.3C550.7 829.4 550.6 776.1 550.4 718.3L551 718.8C538.4 718.8 525.633 718.8 512.7 718.8C506.3 718.9 499.6 718.8 493.2 718.9C486.9 719.9 483.8 728.8 487.7 733.8C488.3 734.6 489 735.2 489.7 735.9C490.367 736.633 491 737.4 491.6 738.2C492.8 739.7 493.9 741.4 494.6 743.3C496.2 747 496 751.3 494.4 754.9C492.8 758.6 489.5 761.4 485.9 762.8C482.3 764.2 478.2 764.5 474.4 763.9C470.6 763.4 466.9 761.7 464.2 758.9C461.5 756.2 460 752.3 460 748.4C460 744.5 461.9 740.9 464.2 738.1C465.4 736.6 466.7 735.3 468.1 734.1C469.3 732.9 470.1 731.3 470.4 729.6C471.1 726.2 469.6 722.5 466.8 720.6C465.4 719.6 463.7 719.1 462 719C460.267 719 458.5 719 456.7 719C449.567 719 442.567 718.967 435.7 718.9C421.833 718.9 408.367 718.867 395.3 718.8L395.8 718.3C395.8 780.8 395.7 834.6 395.7 874L395.4 873.7C420 874.2 439.6 874.7 452.9 875C454.567 875 456.133 875.033 457.6 875.1C459.1 875.2 460.5 875.1 461.7 874.7C464.1 874 465.7 872.4 466.7 871C467.6 869.6 467.9 868.3 468.1 867.4C468.2 866.6 468.2 866.1 468.3 866.1Z" fill="#263238"/>
<path d="M701 770.6C700.9 776.2 696.3 780.7 690.7 780.6C687.9 780.6 685.3 779.4 683.4 777.3C680.4 774 675.2 769.3 668.9 769.2C659.2 769.1 652.2 776.8 652.1 787.8C651.9 798.8 658.6 806.7 668.3 806.9C674.6 807 680 802.5 683.1 799.2C685 797.2 687.7 796.1 690.5 796.2C696.1 796.3 700.6 800.9 700.5 806.5L699.4 875.3L852.5 874.6L852.4 802.3C852.5 796.7 857.1 792.2 862.7 792.3C865.5 792.4 868.1 793.5 870 795.6C873 798.9 878.2 803.6 884.5 803.7C894.2 803.8 901.2 796.1 901.3 785.1C901.5 774.1 894.8 766.2 885.1 766C878.8 765.9 873.4 770.4 870.3 773.7C868.4 775.7 865.7 776.8 862.9 776.7C857.3 776.6 851.9 772.7 852 767.1L851.7 705.6L700.1 706.3L701 770.6Z" fill="#EBEBEB"/>
<g opacity="0.3">
<path d="M701 770.6C700.9 776.2 696.3 780.7 690.7 780.6C687.9 780.6 685.3 779.4 683.4 777.3C680.4 774 675.2 769.3 668.9 769.2C659.2 769.1 652.2 776.8 652.1 787.8C651.9 798.8 658.6 806.7 668.3 806.9C674.6 807 680 802.5 683.1 799.2C685 797.2 687.7 796.1 690.5 796.2C696.1 796.3 700.6 800.9 700.5 806.5L699.4 875.3L852.5 874.6L852.4 802.3C852.5 796.7 857.1 792.2 862.7 792.3C865.5 792.4 868.1 793.5 870 795.6C873 798.9 878.2 803.6 884.5 803.7C894.2 803.8 901.2 796.1 901.3 785.1C901.5 774.1 894.8 766.2 885.1 766C878.8 765.9 873.4 770.4 870.3 773.7C868.4 775.7 865.7 776.8 862.9 776.7C857.3 776.6 851.9 772.7 852 767.1L851.7 705.6L700.1 706.3L701 770.6Z" fill="black"/>
</g>
<path d="M689.7 770.6C689.6 776.2 685 780.7 679.4 780.6C676.6 780.6 674 779.4 672.1 777.3C669.1 774 663.9 769.3 657.6 769.2C647.9 769.1 640.9 776.8 640.8 787.8C640.6 798.8 647.3 806.7 657 806.9C663.3 807 668.7 802.5 671.8 799.2C673.7 797.2 676.4 796.1 679.2 796.2C684.8 796.3 689.3 800.9 689.2 806.5L688.1 875.3L841.2 874.6L841.1 802.3C841.2 796.7 845.8 792.2 851.4 792.3C854.2 792.4 856.8 793.5 858.7 795.6C861.7 798.9 866.9 803.6 873.2 803.7C882.9 803.8 889.9 796.1 890 785.1C890.2 774.1 883.5 766.2 873.8 766C867.5 765.9 862.1 770.4 859 773.7C857.1 775.7 854.4 776.8 851.6 776.7C846 776.6 840.6 772.7 840.7 767.1L840.4 705.6L688.8 706.3L689.7 770.6Z" fill="#EBEBEB"/>
<path d="M689.7 769.5C689.633 768.767 689.6 767.7 689.6 766.3C689.5 763.5 689.5 759.3 689.3 753.8C689.2 742.8 688.9 726.8 688.5 706.3V706.1H688.8C726 705.8 778.3 705.5 840.4 705.2H840.9V705.6C840.9 720.9 841 736.7 841.1 753.2C841.1 757.334 841.133 761.5 841.2 765.7C841.2 766.7 841.1 767.7 841.3 768.7C841.5 769.7 841.9 770.6 842.4 771.4C843.5 773.1 845.2 774.4 847 775.2C848.9 776 851 776.4 853 776.2C855.1 775.9 857 775 858.4 773.5C861.4 770.4 865 767.5 869.3 766.2C870.4 765.8 871.5 765.7 872.7 765.6C873.833 765.534 874.967 765.567 876.1 765.7C878.3 766 880.5 766.8 882.5 768.1C886.4 770.5 888.9 774.8 889.9 779.2C890.9 783.7 890.7 788.5 889.2 792.9C887.6 797.3 884.3 801.2 879.9 803C877.7 803.9 875.3 804.2 872.9 804.2C870.5 804.1 868.1 803.3 866 802.2C863.9 801.1 862 799.6 860.3 798C859.5 797.2 858.6 796.3 857.9 795.5C857.1 794.7 856.1 794.1 855.1 793.6C853.1 792.7 850.7 792.6 848.6 793.2C846.4 793.8 844.5 795.2 843.3 797.1C842 798.9 841.5 801.2 841.6 803.5C841.6 805.9 841.6 808.3 841.6 810.7C841.6 832.4 841.7 853.8 841.7 874.6V875.1H841.2C785.6 875.4 733.8 875.6 688.1 875.8H687.6L687.7 875.3C687.9 859.7 688.2 844.8 688.4 830.6C688.533 823.534 688.633 816.634 688.7 809.9C688.7 808.2 688.9 806.5 688.7 804.9C688.5 803.3 687.9 801.8 686.9 800.6C685.1 798 682 796.5 679 796.5C677.4 796.5 675.9 796.9 674.6 797.6C673.2 798.3 672.2 799.3 671.1 800.4C668.9 802.6 666.4 804.4 663.7 805.7C658.2 808.4 651.6 807.3 647.2 803.8C642.8 800.3 640.8 794.8 640.5 789.8C640.2 784.8 641.4 779.8 644 776C646.5 772.1 650.6 769.8 654.7 769.2C658.8 768.5 662.7 769.7 665.7 771.6C668.7 773.4 671 775.9 673 778C675.3 780 678.1 780.6 680.5 780.4C682.8 780.2 684.8 779.2 686.2 778C687.6 776.8 688.4 775.4 688.9 774.3C689.8 772 689.6 770.6 689.7 770.6C689.7 770.6 689.7 770.934 689.7 771.6C689.6 772.2 689.5 773.2 689 774.3C688.6 775.5 687.7 776.9 686.3 778.1C685 779.4 682.9 780.4 680.5 780.7C678 780.9 675.1 780.3 672.8 778.3C670.7 776.1 668.5 773.7 665.5 771.9C662.5 770.1 658.7 768.9 654.8 769.7C650.8 770.2 646.9 772.5 644.4 776.3C641.9 780 640.8 784.9 641.1 789.8C641.4 794.7 643.4 800 647.6 803.3C651.8 806.6 658.1 807.7 663.4 805.1C666 803.9 668.4 802 670.6 799.9C671.6 798.9 672.8 797.6 674.3 797C675.7 796.2 677.3 795.8 678.9 795.8C682.2 795.8 685.6 797.4 687.5 800.1C688.5 801.5 689.2 803.1 689.5 804.8C689.7 806.6 689.5 808.2 689.5 809.9C689.433 816.634 689.333 823.534 689.2 830.6C689 844.8 688.8 859.7 688.5 875.3L688.1 874.9C733.8 874.6 785.6 874.4 841.2 874.1L840.7 874.6C840.6 853.8 840.6 832.4 840.6 810.6C840.6 808.267 840.6 805.9 840.6 803.5C840.4 801.1 841 798.5 842.4 796.5C843.8 794.4 845.9 792.9 848.3 792.2C850.7 791.5 853.3 791.7 855.5 792.7C856.7 793.2 857.7 793.9 858.6 794.7C859.5 795.6 860.2 796.5 861 797.3C862.7 798.8 864.5 800.2 866.5 801.3C868.5 802.4 870.7 803.1 872.9 803.1C875.2 803.2 877.4 802.8 879.5 802C883.6 800.4 886.7 796.7 888.2 792.5C889.7 788.3 889.9 783.7 888.9 779.5C888 775.2 885.6 771.2 881.9 768.9C880.1 767.8 878 767 875.9 766.7C873.8 766.4 871.7 766.5 869.6 767.1C865.5 768.4 862.1 771.1 859.1 774.2C857.5 775.8 855.4 776.9 853.2 777.1C850.9 777.4 848.7 777 846.6 776.1C844.6 775.3 842.8 773.8 841.6 772C841 771 840.6 770 840.4 768.9C840.1 767.8 840.2 766.7 840.2 765.6C840.2 761.467 840.167 757.334 840.1 753.2C840.1 736.7 840 720.9 840 705.7L840.4 706.1C778.3 706.3 726 706.5 688.8 706.6L689.1 706.3C689.3 726.8 689.5 742.8 689.6 753.8C689.7 759.3 689.7 763.5 689.7 766.3C689.7 767.7 689.7 768.767 689.7 769.5Z" fill="#263238"/>
<path d="M719.1 785.4C715.9 785.3 705.9 784 703.7 786.3C700.2 789.9 701 797.6 693.8 797.4C682.8 797.2 675.2 788.2 675.5 775.7C675.7 763.2 683.6 754.5 694.7 754.7C701.8 754.8 699.7 765.8 704.4 767.5C707.2 768.5 716.2 767.6 719.4 767.7C725.8 767.8 731 762.8 731.2 756.4L730.5 683.1L615.4 683.2L536.8 683.4V753.2C536.7 759.5 542.8 764.1 549.2 764.2C552.4 764.3 555.4 763 557.6 760.7C561.1 757.1 567.3 752 574.4 752.2C585.5 752.4 593 761.4 592.8 773.9C592.5 786.4 584.6 795.1 573.6 794.9C566.4 794.8 560.5 789.4 557.1 785.7C555 783.3 552 782 548.8 781.9C542.5 781.8 537.2 786.8 537.1 793.2L536.8 875.3H652.5H720.4H728.8L730.4 797.1C730.5 790.8 725.4 785.5 719.1 785.4Z" fill="#01304B"/>
<path d="M706.9 785.4C703.8 785.3 700.7 786.6 698.5 788.9C695 792.5 688.9 797.6 681.7 797.4C670.7 797.2 663.1 788.2 663.4 775.7C663.6 763.2 671.5 754.5 682.6 754.7C689.7 754.8 695.7 760.2 699 763.9C701.1 766.3 704.1 767.6 707.3 767.7C713.7 767.8 718.9 762.8 719 756.4L718.3 683.1L603.3 683.2L524.7 683.4V753.2C524.6 759.5 530.7 764.1 537.1 764.2C540.2 764.3 543.3 763 545.5 760.7C549 757.1 555.2 752 562.3 752.2C573.3 752.4 580.9 761.4 580.7 773.9C580.4 786.4 572.5 795.1 561.5 794.9C554.3 794.8 548.4 789.4 545 785.7C542.9 783.3 539.9 782 536.7 781.9C530.4 781.8 525.1 786.8 525 793.2L524.7 875.3H640.4H708.3H716.7L718.2 797.1C718.4 790.8 713.3 785.5 706.9 785.4Z" fill="#0A4B70"/>
<path d="M706.9 785.4C706.9 785.4 707.5 785.4 708.6 785.5C709.7 785.7 711.3 786.1 713.1 787.2C714.9 788.4 716.9 790.4 717.8 793.5C718.4 795 718.4 796.7 718.4 798.5C718.333 800.367 718.3 802.3 718.3 804.3C718 820.8 717.5 844.9 717 875.3V875.6H716.7C668.1 875.7 601.8 875.7 524.7 875.8H524.2V875.3C524.3 859.2 524.3 842.6 524.4 825.6C524.4 817.067 524.433 808.433 524.5 799.7C524.5 797.5 524.5 795.3 524.5 793.1C524.5 790.8 525.3 788.5 526.6 786.6C529.2 782.7 534.2 780.7 538.8 781.6C541.1 782 543.3 783.2 544.9 784.8C546.5 786.5 548 788.1 549.8 789.5C553.2 792.3 557.4 794.4 561.8 794.4C566.3 794.4 570.8 792.7 574 789.6C577.2 786.5 579.1 782.1 579.8 777.6C580.2 775.3 580.2 773 580 770.8C579.8 768.5 579.3 766.2 578.4 764.1C576.8 759.8 573.6 756.1 569.4 754.2C565.2 752.3 560.2 752.1 555.9 753.9C553.7 754.8 551.7 756.1 549.9 757.5C548.966 758.233 548.066 759 547.2 759.8C546.3 760.6 545.6 761.5 544.5 762.3C542.8 763.6 540.8 764.4 538.6 764.6C536.5 764.9 534.4 764.5 532.4 763.9C530.4 763.1 528.6 762 527.1 760.4C525.6 758.9 524.6 756.9 524.3 754.8C524.1 753.7 524.2 752.7 524.2 751.7V748.7C524.2 746.633 524.2 744.6 524.2 742.6C524.2 738.6 524.2 734.6 524.2 730.6C524.2 714.6 524.2 698.867 524.2 683.4V682.9H524.7C596 682.8 661.7 682.7 718.3 682.6H718.8V683.1C718.9 699.2 719 714.6 719.2 729.2C719.266 736.533 719.3 743.667 719.3 750.6C719.366 752.333 719.4 754.033 719.4 755.7C719.4 757.5 719.1 759.2 718.4 760.8C717.1 764 714.3 766.5 711.1 767.5C707.9 768.5 704.4 768.1 701.6 766.5C700.2 765.7 699 764.5 698 763.4C697 762.267 695.9 761.2 694.7 760.2C692.4 758.3 689.9 756.7 687.2 755.8C684.5 754.9 681.6 754.8 678.9 755.3C673.3 756.2 668.9 759.9 666.5 764.3C664 768.8 663.4 773.8 663.7 778.3C664 782.9 665.4 787.2 668 790.4C670.4 793.7 673.9 795.7 677.3 796.6C680.7 797.6 684.1 797.4 687 796.5C689.9 795.5 692.2 794 694.2 792.6C696.2 791.1 697.7 789.5 699 788.2C700.4 787 701.9 786.3 703.1 785.9C704.4 785.5 705.3 785.4 706 785.4C706.6 785.4 706.9 785.4 706.9 785.4C706.9 785.4 706.6 785.4 706 785.5C705.3 785.5 704.4 785.6 703.2 786C702 786.4 700.5 787.1 699.1 788.4C697.8 789.7 696.3 791.3 694.3 792.8C692.4 794.3 690 795.8 687.1 796.8C684.2 797.7 680.7 797.9 677.2 797C673.7 796.1 670.2 794 667.6 790.7C665 787.4 663.6 783 663.2 778.4C662.9 773.7 663.5 768.6 666 764C668.4 759.5 673.1 755.6 678.7 754.7C681.5 754.2 684.5 754.2 687.4 755.2C690.2 756.2 692.8 757.8 695.1 759.7C696.3 760.7 697.433 761.767 698.5 762.9C699.5 764.1 700.6 765.2 701.9 765.9C704.6 767.4 707.9 767.8 710.9 766.8C713.9 765.9 716.5 763.6 717.8 760.5C719.1 757.5 718.5 754 718.6 750.6C718.533 743.667 718.466 736.533 718.4 729.2C718.2 714.6 718.1 699.2 717.9 683.1L718.3 683.5C661.7 683.6 596 683.8 524.7 683.9L525.2 683.4C525.2 698.867 525.2 714.6 525.2 730.6C525.2 734.6 525.2 738.6 525.2 742.6C525.2 744.6 525.2 746.633 525.2 748.7V751.7C525.2 752.7 525.2 753.7 525.3 754.7C525.8 758.5 529.1 761.6 532.7 762.9C534.6 763.5 536.6 763.8 538.5 763.6C540.5 763.4 542.4 762.7 543.9 761.5C544.8 760.8 545.6 759.9 546.5 759C547.366 758.2 548.266 757.433 549.2 756.7C551.2 755.2 553.2 753.9 555.5 753C560.1 751.1 565.4 751.3 569.8 753.3C574.3 755.3 577.7 759.2 579.4 763.7C580.3 765.9 580.8 768.3 581 770.7C581.2 773 581.2 775.4 580.8 777.8C580.1 782.4 578.1 787 574.7 790.3C571.3 793.7 566.5 795.5 561.8 795.4C557.1 795.5 552.6 793.2 549.1 790.3C547.3 788.9 545.7 787.2 544.2 785.6C542.7 784 540.7 783 538.6 782.6C534.4 781.7 529.8 783.6 527.4 787.2C526.2 788.9 525.5 791 525.5 793.1C525.5 795.3 525.5 797.5 525.5 799.7C525.433 808.433 525.4 817.067 525.4 825.6C525.3 842.7 525.2 859.3 525.2 875.3L524.7 874.8C601.8 874.9 668.1 875 716.7 875L716.4 875.3C717 844.9 717.6 820.8 717.9 804.3C717.966 802.233 718.033 800.3 718.1 798.5C718.2 796.7 718.1 795 717.6 793.5C716.7 790.5 714.7 788.5 713 787.4C711.2 786.2 709.6 785.8 708.6 785.6C707.5 785.4 706.9 785.4 706.9 785.4Z" fill="#263238"/>
<path d="M520 295.7C516.7 295.6 506.4 294.2 504.1 296.5C500.5 300.3 501.3 308.2 494 308.1C482.6 307.9 474.8 298.6 475 285.7C475.3 272.7 483.4 263.8 494.8 264C502.2 264.2 500 275.4 504.8 277.2C507.7 278.3 517 277.4 520.3 277.4C526.9 277.6 532.3 272.3 532.4 265.8L531.7 190.2L413.1 190.3L332.1 190.6V262.4C332 269 338.3 273.7 344.9 273.8C348.1 273.9 351.3 272.6 353.6 270.3C357.1 266.5 363.5 261.3 370.9 261.4C382.3 261.6 390 270.9 389.8 283.8C389.5 296.7 381.4 305.7 370 305.5C362.6 305.3 356.5 299.8 353.1 295.9C350.9 293.5 347.8 292.1 344.5 292C337.9 291.9 332.5 297.1 332.4 303.7L332.1 388.3H451.4H521.4H530L531.6 307.8C531.7 301.2 526.5 295.8 520 295.7Z" fill="#01304B"/>
<path d="M506.4 295.7C503.1 295.6 499.9 296.9 497.7 299.2C494.1 303 487.7 308.2 480.4 308.1C469 307.9 461.2 298.6 461.4 285.7C461.7 272.7 469.8 263.8 481.2 264C488.6 264.2 494.7 269.7 498.2 273.5C500.3 276 503.5 277.4 506.7 277.4C513.3 277.6 518.7 272.3 518.8 265.8L518.1 190.2L399.5 190.3L318.5 190.6V262.4C318.4 269 324.7 273.7 331.3 273.8C334.5 273.9 337.7 272.6 340 270.3C343.6 266.5 349.9 261.3 357.3 261.4C368.7 261.6 376.4 270.9 376.2 283.8C375.9 296.7 367.8 305.7 356.4 305.5C349 305.3 342.9 299.8 339.5 295.9C337.3 293.5 334.2 292.1 330.9 292C324.3 291.9 318.9 297.1 318.8 303.7L318.5 388.3H437.8H507.8H516.4L518 307.8C518.1 301.2 512.9 295.8 506.4 295.7Z" fill="#0A4B70"/>
<path d="M506.4 295.7C506.4 295.7 506.9 295.6 508.1 295.8C509.2 295.9 510.8 296.3 512.7 297.6C514.5 298.7 516.6 300.8 517.6 304C518.1 305.5 518.2 307.3 518.1 309.2C518.1 311.067 518.067 313.067 518 315.2C517.7 332.2 517.3 357 516.7 388.3V388.6H516.4C466.3 388.7 398 388.7 318.5 388.8H318.1V388.3C318.1 371.8 318.1 354.7 318.2 337.1C318.2 328.3 318.233 319.4 318.3 310.4C318.3 308.133 318.3 305.867 318.3 303.6C318.4 301.2 319.1 298.9 320.5 296.9C323.2 292.9 328.3 290.8 333.1 291.8C335.4 292.2 337.7 293.4 339.4 295.1C341 296.9 342.5 298.5 344.3 299.9C347.9 302.8 352.2 305 356.8 304.9C361.4 305 366 303.2 369.3 300C372.7 296.8 374.6 292.3 375.3 287.6C375.7 285.3 375.7 282.9 375.5 280.6C375.3 278.2 374.8 275.9 373.9 273.7C372.2 269.3 368.9 265.5 364.5 263.5C360.2 261.6 355.1 261.4 350.7 263.2C348.5 264.1 346.4 265.4 344.5 266.9C343.5 267.633 342.567 268.433 341.7 269.3C340.8 270.1 340 271.1 339 271.9C337.2 273.2 335.1 274 332.9 274.3C330.7 274.5 328.5 274.1 326.4 273.4C324.4 272.7 322.5 271.5 321 269.9C319.5 268.3 318.4 266.3 318.1 264.1C318 263 318 261.9 318 260.9V257.8C318 255.733 318 253.667 318 251.6C318 247.4 318 243.267 318 239.2C318 222.733 318 206.533 318 190.6V190H318.5C392 189.9 459.7 189.8 518.1 189.8H518.5V190.2C518.7 206.8 518.8 222.7 518.9 237.8C518.967 245.333 519.033 252.667 519.1 259.8C519.167 261.6 519.2 263.367 519.2 265.1C519.2 266.9 518.9 268.7 518.2 270.3C516.8 273.6 514 276.1 510.7 277.2C507.4 278.2 503.7 277.8 500.9 276.2C499.4 275.4 498.2 274.1 497.2 272.9C496.133 271.767 495 270.7 493.8 269.7C491.4 267.7 488.8 266.1 486 265.2C483.2 264.2 480.2 264.1 477.4 264.6C471.7 265.5 467.1 269.3 464.7 273.9C462.1 278.5 461.5 283.7 461.8 288.4C462.1 293.1 463.6 297.5 466.2 300.8C468.7 304.2 472.3 306.3 475.8 307.2C479.3 308.2 482.9 308 485.8 307.1C488.8 306.1 491.2 304.6 493.2 303.1C495.2 301.5 496.8 299.9 498.2 298.6C499.7 297.3 501.2 296.6 502.4 296.2C503.7 295.8 504.7 295.7 505.4 295.7C506 295.6 506.4 295.7 506.4 295.7C506.4 295.7 506.067 295.7 505.4 295.7C504.7 295.8 503.7 295.9 502.5 296.3C501.2 296.7 499.7 297.4 498.3 298.7C497 300.1 495.4 301.7 493.4 303.3C491.3 304.8 488.9 306.4 485.9 307.4C482.9 308.4 479.3 308.6 475.7 307.6C472.1 306.7 468.4 304.5 465.8 301.1C463.2 297.7 461.6 293.2 461.3 288.4C461 283.6 461.6 278.4 464.2 273.7C466.7 269 471.4 265 477.3 264C480.2 263.5 483.3 263.6 486.2 264.6C489.1 265.6 491.8 267.2 494.2 269.2C495.4 270.2 496.567 271.3 497.7 272.5C498.7 273.7 499.8 274.8 501.2 275.6C503.9 277.1 507.4 277.5 510.5 276.5C513.6 275.5 516.3 273.2 517.6 270C519 267 518.3 263.3 518.4 259.8C518.333 252.667 518.267 245.333 518.2 237.8C518 222.7 517.9 206.8 517.7 190.2L518.1 190.6C459.7 190.7 392 190.9 318.5 191.1L319 190.6C319 206.533 319 222.733 319 239.2C319 243.333 319 247.467 319 251.6C319 253.667 319 255.733 319 257.8V260.9C319.1 262 319 263 319.2 264C319.7 268 323 271.1 326.8 272.5C328.7 273.1 330.8 273.4 332.8 273.2C334.8 273 336.7 272.2 338.3 271C339.3 270.3 340 269.4 341 268.5C341.867 267.633 342.8 266.833 343.8 266.1C345.8 264.5 347.9 263.2 350.3 262.3C355 260.3 360.4 260.5 365 262.6C369.6 264.6 373.1 268.7 374.9 273.3C375.8 275.6 376.4 278 376.6 280.5C376.8 282.9 376.8 285.4 376.4 287.8C375.6 292.6 373.6 297.3 370 300.7C366.5 304.2 361.6 306 356.8 306C351.9 306 347.3 303.7 343.7 300.7C341.8 299.2 340.2 297.5 338.6 295.8C337.1 294.2 335 293.2 332.9 292.8C328.5 291.9 323.8 293.8 321.3 297.5C320.1 299.3 319.4 301.4 319.3 303.6C319.3 305.867 319.3 308.133 319.3 310.4C319.233 319.4 319.2 328.3 319.2 337.1C319.1 354.7 319.1 371.8 319 388.3L318.5 387.9C398 387.9 466.3 388 516.4 388L516.1 388.3C516.8 356.9 517.3 332.1 517.7 315.2C517.767 313.067 517.8 311.067 517.8 309.2C517.9 307.3 517.9 305.6 517.3 304C516.4 301 514.4 298.9 512.6 297.7C510.8 296.5 509.1 296.1 508 295.9C506.9 295.7 506.4 295.7 506.4 295.7Z" fill="#263238"/>
<path d="M926.6 295.7C923.4 295.6 913.1 294.2 910.8 296.5C907.2 300.3 908 308.2 900.6 308.1C889.2 307.9 881.4 298.6 881.7 285.7C881.9 272.7 890.1 263.8 901.5 264C908.8 264.2 906.6 275.4 911.5 277.2C914.4 278.3 923.7 277.4 927 277.4C933.5 277.6 939 272.3 939.1 265.8L938.4 190.2L819.8 190.3L738.8 190.6V262.4C738.7 269 745 273.7 751.5 273.8C754.8 273.9 758 272.6 760.2 270.3C763.8 266.5 770.2 261.3 777.5 261.4C788.9 261.6 796.7 270.9 796.5 283.8C796.2 296.7 788.1 305.7 776.7 305.5C769.3 305.3 763.2 299.8 759.7 295.9C757.6 293.5 754.4 292.1 751.2 292C744.6 291.9 739.2 297.1 739.1 303.7L738.8 388.3H858H928H936.6L938.3 307.8C938.4 301.2 933.2 295.8 926.6 295.7Z" fill="#01304B"/>
<path d="M914.1 295.7C910.9 295.6 907.7 296.9 905.4 299.2C901.8 303 895.5 308.2 888.1 308.1C876.7 307.9 869 298.6 869.2 285.7C869.5 272.7 877.6 263.8 889 264C896.4 264.2 902.5 269.7 905.9 273.5C908.1 276 911.2 277.4 914.5 277.4C921.1 277.6 926.5 272.3 926.6 265.8L925.9 190.2L807.3 190.3L726.3 190.6V262.4C726.2 269 732.5 273.7 739 273.8C742.3 273.9 745.5 272.6 747.7 270.3C751.3 266.5 757.7 261.3 765 261.4C776.4 261.6 784.2 270.9 784 283.8C783.7 296.7 775.6 305.7 764.2 305.5C756.8 305.3 750.7 299.8 747.2 295.9C745.1 293.5 741.9 292.1 738.7 292C732.1 291.9 726.7 297.1 726.6 303.7L726.3 388.3H845.6H915.5H924.1L925.8 307.8C925.9 301.2 920.7 295.8 914.1 295.7Z" fill="#0A4B70"/>
<path d="M914.1 295.7C914.1 295.7 914.7 295.6 915.8 295.8C916.9 295.9 918.6 296.3 920.5 297.6C922.3 298.7 924.4 300.8 925.4 304C925.9 305.5 926 307.3 925.9 309.2C925.833 311.067 925.8 313.067 925.8 315.2C925.5 332.2 925 357 924.5 388.3L924.4 388.6H924.1C874.1 388.7 805.8 388.7 726.3 388.8H725.8V388.3C725.9 371.8 725.9 354.7 726 337.1C726 328.3 726 319.4 726 310.4C726.067 308.133 726.1 305.867 726.1 303.6C726.1 301.2 726.9 298.9 728.3 296.9C730.9 292.9 736.1 290.8 740.8 291.8C743.2 292.2 745.4 293.4 747.1 295.1C748.7 296.9 750.3 298.5 752.1 299.9C755.6 302.8 760 305 764.6 304.9C769.2 305 773.8 303.2 777.1 300C780.4 296.8 782.4 292.3 783.1 287.6C783.5 285.3 783.5 282.9 783.3 280.6C783.1 278.2 782.6 275.9 781.7 273.7C780 269.3 776.7 265.5 772.3 263.5C768 261.6 762.9 261.4 758.4 263.2C756.2 264.1 754.2 265.4 752.2 266.9C751.267 267.633 750.367 268.433 749.5 269.3C748.6 270.1 747.8 271.1 746.7 271.9C745 273.2 742.8 274 740.7 274.3C738.5 274.5 736.3 274.1 734.2 273.4C732.2 272.7 730.3 271.5 728.8 269.9C727.3 268.3 726.2 266.3 725.9 264.1C725.7 263 725.8 261.9 725.8 260.9V257.8C725.8 255.733 725.8 253.667 725.8 251.6C725.8 247.4 725.8 243.267 725.8 239.2C725.8 222.733 725.8 206.533 725.8 190.6V190H726.3C799.8 189.9 867.5 189.8 925.9 189.8H926.3V190.2C926.4 206.8 926.6 222.7 926.7 237.8C926.767 245.333 926.833 252.667 926.9 259.8C926.9 261.6 926.933 263.367 927 265.1C927 266.9 926.7 268.7 926 270.3C924.6 273.6 921.7 276.1 918.5 277.2C915.2 278.2 911.5 277.8 908.6 276.2C907.2 275.4 906 274.1 905 272.9C903.867 271.767 902.733 270.7 901.6 269.7C899.2 267.7 896.6 266.1 893.8 265.2C891 264.2 888 264.1 885.2 264.6C879.5 265.5 874.9 269.3 872.4 273.9C869.9 278.5 869.2 283.7 869.5 288.4C869.9 293.1 871.4 297.5 874 300.8C876.5 304.2 880 306.3 883.6 307.2C887.1 308.2 890.6 308 893.6 307.1C896.5 306.1 899 304.6 901 303.1C903 301.5 904.6 299.9 906 298.6C907.4 297.3 909 296.6 910.2 296.2C911.5 295.8 912.5 295.7 913.1 295.7C913.8 295.6 914.1 295.7 914.1 295.7C914.1 295.7 913.767 295.7 913.1 295.7C912.5 295.8 911.5 295.9 910.2 296.3C909 296.7 907.5 297.4 906.1 298.7C904.7 300.1 903.2 301.7 901.1 303.3C899.1 304.8 896.7 306.4 893.7 307.4C890.7 308.4 887.1 308.6 883.5 307.6C879.9 306.7 876.2 304.5 873.6 301.1C870.9 297.7 869.4 293.2 869 288.4C868.7 283.6 869.4 278.4 872 273.7C874.5 269 879.2 265 885.1 264C887.9 263.5 891.1 263.6 894 264.6C896.9 265.6 899.5 267.2 902 269.2C903.2 270.2 904.333 271.3 905.4 272.5C906.5 273.7 907.6 274.8 909 275.6C911.7 277.1 915.1 277.5 918.2 276.5C921.3 275.5 924 273.2 925.3 270C926.7 267 926.1 263.3 926.2 259.8C926.133 252.667 926.033 245.333 925.9 237.8C925.8 222.7 925.6 206.8 925.5 190.2L925.9 190.6C867.5 190.7 799.8 190.9 726.3 191.1L726.8 190.6C726.8 206.533 726.8 222.733 726.8 239.2C726.8 243.333 726.8 247.467 726.8 251.6C726.8 253.667 726.8 255.733 726.8 257.8V260.9C726.8 262 726.8 263 726.9 264C727.4 268 730.8 271.1 734.6 272.5C736.5 273.1 738.5 273.4 740.5 273.2C742.6 273 744.5 272.2 746.1 271C747 270.3 747.8 269.4 748.8 268.5C749.667 267.633 750.6 266.833 751.6 266.1C753.6 264.5 755.7 263.2 758.1 262.3C762.7 260.3 768.2 260.5 772.7 262.6C777.4 264.6 780.9 268.7 782.7 273.3C783.6 275.6 784.1 278 784.3 280.5C784.6 282.9 784.5 285.4 784.1 287.8C783.4 292.6 781.4 297.3 777.8 300.7C774.3 304.2 769.4 306 764.6 306C759.6 306 755.1 303.7 751.5 300.7C749.6 299.2 747.9 297.5 746.4 295.8C744.9 294.2 742.8 293.2 740.6 292.8C736.3 291.9 731.5 293.8 729.1 297.5C727.8 299.3 727.2 301.4 727.1 303.6C727.1 305.867 727.1 308.133 727.1 310.4C727.033 319.4 727 328.3 727 337.1C726.9 354.7 726.8 371.8 726.8 388.3L726.3 387.9C805.8 387.9 874.1 388 924.1 388L923.8 388.3C924.5 356.9 925.1 332.1 925.5 315.2C925.5 313.067 925.533 311.067 925.6 309.2C925.7 307.3 925.6 305.6 925.1 304C924.2 301 922.2 298.9 920.4 297.7C918.5 296.5 916.9 296.1 915.8 295.9C914.7 295.7 914.1 295.7 914.1 295.7Z" fill="#263238"/>
<path d="M141.7 265.6C141.6 272.2 136.2 277.4 129.6 277.2C126.4 277.2 123.2 275.8 121.1 273.3C117.6 269.5 111.5 264 104.1 263.8C92.8002 263.6 84.6002 272.6 84.4002 285.5C84.1002 298.4 91.9002 307.7 103.3 307.9C110.6 308 117 302.8 120.6 299C122.8 296.7 126 295.4 129.3 295.5C135.8 295.6 141.1 301 140.9 307.6L139.3 388.2H318.5L318.7 303.5C318.9 296.9 324.3 291.7 330.8 291.9C334.1 291.9 337.2 293.3 339.4 295.8C342.8 299.6 349 305.1 356.3 305.3C367.7 305.5 375.9 296.5 376.1 283.6C376.4 270.7 368.6 261.4 357.2 261.2C349.8 261.1 343.5 266.3 339.9 270.1C337.6 272.4 334.5 273.7 331.2 273.6C324.6 273.5 318.3 268.8 318.5 262.2V190.4H141L141.7 265.6Z" fill="#0A4B70"/>
<path d="M141.7 265.6C141.7 265.6 141.7 265.167 141.7 264.3C141.7 263.433 141.667 262.2 141.6 260.6C141.6 257.3 141.5 252.3 141.4 246C141.3 233.1 141 214.3 140.8 190.4L140.7 190.1H141C184.5 190.1 245.7 190 318.5 189.9H318.9V190.4C318.9 208.2 318.9 226.8 318.9 246C318.9 250.867 318.9 255.733 318.9 260.6C319 261.8 318.9 263 319.1 264.2C319.3 265.3 319.8 266.4 320.4 267.4C321.7 269.4 323.6 271 325.8 271.9C328 272.9 330.5 273.3 332.9 273C335.3 272.8 337.6 271.7 339.3 270C342.8 266.3 347 263 352 261.5C353.3 261.1 354.6 260.8 355.9 260.7C357.3 260.7 358.6 260.8 359.9 260.9C362.5 261.3 365.1 262.3 367.3 263.7C371.8 266.6 374.8 271.5 376 276.8C377.1 282 376.8 287.6 375 292.7C373.2 297.8 369.3 302.4 364.1 304.4C361.5 305.4 358.7 305.9 356 305.8C353.2 305.7 350.4 304.8 348 303.5C345.5 302.1 343.3 300.4 341.3 298.5C340.3 297.6 339.4 296.5 338.5 295.6C337.6 294.6 336.5 293.9 335.3 293.4C332.9 292.3 330.1 292.1 327.5 292.8C325 293.5 322.7 295.1 321.2 297.3C319.7 299.5 319.1 302.2 319.2 304.9C319.2 307.7 319.2 310.5 319.2 313.3C319.1 338.8 319.1 363.8 319 388.2V388.7H318.5C253.4 388.6 192.7 388.6 139.3 388.6H138.8V388.1C139.2 369.9 139.6 352.4 139.9 335.8C140.1 327.533 140.3 319.467 140.5 311.6C140.5 309.6 140.7 307.6 140.4 305.8C140.2 303.9 139.5 302.1 138.4 300.6C136.2 297.6 132.6 295.8 129 295.8C127.2 295.8 125.4 296.3 123.9 297.1C123.1 297.5 122.367 297.967 121.7 298.5C121 299.1 120.4 299.7 119.7 300.4C117.2 302.9 114.3 305 111.1 306.5C104.6 309.6 96.9001 308.2 91.9001 304.2C89.3001 302.2 87.4001 299.5 86.2001 296.7C84.9001 293.8 84.3001 290.8 84.1001 287.8C83.8001 281.9 85.1001 276.1 88.2001 271.7C91.2001 267.2 96.0001 264.5 100.8 263.8C105.5 263 110.1 264.4 113.6 266.6C117.2 268.8 119.8 271.7 122.2 274.2C124.8 276.5 128.1 277.3 130.8 277.1C133.7 276.8 136 275.7 137.6 274.2C139.2 272.8 140.2 271.2 140.8 269.9C141.9 267.2 141.6 265.6 141.7 265.6C141.767 265.6 141.767 265.967 141.7 266.7C141.6 267.5 141.5 268.6 140.9 270C140.3 271.3 139.4 273 137.7 274.4C136.1 275.9 133.7 277.1 130.9 277.3C128 277.6 124.6 276.8 121.9 274.4C119.5 271.9 116.9 269.1 113.4 267C109.9 264.8 105.5 263.5 100.8 264.3C96.2001 264.9 91.6001 267.6 88.6001 272C85.7001 276.3 84.4001 282 84.7001 287.8C85.0001 293.6 87.3001 299.7 92.3001 303.7C97.2001 307.6 104.6 308.9 110.8 305.9C113.9 304.5 116.7 302.3 119.3 299.9C119.9 299.3 120.5 298.6 121.2 298C121.933 297.4 122.7 296.867 123.5 296.4C125.2 295.6 127.1 295.1 129 295.1C132.8 295.1 136.7 297 139 300.2C140.1 301.8 140.9 303.7 141.2 305.7C141.4 307.7 141.2 309.6 141.2 311.6C141.067 319.467 140.933 327.533 140.8 335.8C140.4 352.5 140.1 369.9 139.7 388.2L139.3 387.7C192.7 387.7 253.4 387.7 318.5 387.6L317.9 388.2C318 363.8 318.1 338.8 318.2 313.3C318.2 310.5 318.2 307.7 318.2 304.9C318.1 302.1 318.7 299.1 320.4 296.7C322 294.3 324.5 292.6 327.3 291.8C330 291 333.1 291.2 335.7 292.4C337 293 338.2 293.8 339.2 294.8C340.2 295.9 341.1 296.8 342.1 297.8C344 299.6 346.1 301.3 348.5 302.5C350.8 303.8 353.4 304.6 356 304.7C358.6 304.8 361.3 304.4 363.7 303.4C368.6 301.5 372.3 297.2 374 292.3C375.8 287.4 376 282 375 277C373.9 272 371 267.3 366.7 264.6C364.6 263.2 362.2 262.3 359.7 261.9C358.5 261.8 357.2 261.7 356 261.7C354.7 261.9 353.5 262 352.3 262.4C347.5 263.9 343.4 267.1 340 270.7C338.1 272.5 335.6 273.7 333 274C330.4 274.3 327.8 273.9 325.4 272.8C323.1 271.8 321 270.1 319.6 267.9C318.9 266.9 318.4 265.6 318.2 264.4C317.9 263.1 318 261.8 318 260.6C318 255.667 318 250.8 318 246C318 226.8 318 208.2 318 190.4L318.5 190.8C245.7 190.7 184.5 190.7 141 190.6L141.3 190.4C141.5 214.3 141.6 233.1 141.7 246C141.7 252.3 141.8 257.3 141.8 260.6C141.8 262.2 141.8 263.433 141.8 264.3C141.8 265.167 141.767 265.6 141.7 265.6Z" fill="#263238"/>
<path d="M130.2 295.7C127.2 295.6 124.3 296.9 122.2 299.2C119 303 113.2 308.2 106.4 308.1C96 307.9 88.9 298.6 89.1 285.7C89.4 272.7 96.8 263.8 107.2 264C113.9 264.2 119.6 269.7 122.7 273.5C124.7 276 127.5 277.4 130.5 277.4C136.5 277.6 141.5 272.3 141.6 265.8L140.9 190.2L32.5 190.3L0.5 190.6V262.4V388.3H67.5H131.5H139.3L140.8 307.8C141 301.2 136.2 295.8 130.2 295.7Z" fill="#0A4B70"/>
<path d="M130.2 295.7C130.2 295.7 130.333 295.7 130.6 295.7C130.9 295.7 131.4 295.7 131.9 295.8C133 296 134.7 296.5 136.5 297.9C138.2 299.3 140 301.6 140.7 304.9C141.1 306.5 141 308.3 141 310.1C140.933 311.967 140.9 313.967 140.9 316.1C140.6 333.1 140.2 357.7 139.7 388.3V388.7H139.3C101.5 388.7 54.1 388.8 0.5 388.8H0.1V388.3C3.7998e-07 340.5 0 287.5 0 231.9C0 217.9 0 204.1 0 190.6V190H0.5C25.8 189.8 50.4 189.8 73.8 189.8C97.3 189.8 119.8 189.7 140.9 189.7H141.4V190.2C141.5 206 141.6 221.2 141.8 235.6C141.8 242.8 141.833 249.833 141.9 256.7C141.9 260.2 142 263.5 141.9 266.9C141.6 270.3 139.9 273.5 137.2 275.6C134.6 277.6 131 278.3 127.9 277.4C126.3 277 124.9 276.2 123.7 275.1C122.5 274 121.7 272.7 120.6 271.7C118.6 269.5 116.3 267.6 113.8 266.2C111.3 264.8 108.5 264.2 105.8 264.4C100.2 264.6 95.5 268.1 92.9 272.5C90.3 276.8 89.4 281.8 89.4 286.4C89.4 291 90.4 295.4 92.4 299C94.3 302.6 97.3 305.3 100.6 306.6C103.9 308 107.4 308.2 110.3 307.4C113.3 306.6 115.6 305 117.6 303.5C119.5 302 121.1 300.4 122.3 298.9C123.7 297.5 125.1 296.7 126.3 296.3C127.6 295.8 128.5 295.7 129.2 295.7C129.9 295.6 130.2 295.7 130.2 295.7C130.2 295.7 128.8 295.5 126.4 296.4C125.2 296.9 123.8 297.7 122.5 299.1C121.2 300.5 119.7 302.2 117.8 303.7C115.8 305.3 113.4 306.9 110.4 307.7C107.4 308.6 103.8 308.4 100.4 307C97.1 305.7 93.9 302.9 91.9 299.2C89.9 295.5 88.9 291 88.9 286.4C88.8 281.7 89.7 276.6 92.4 272.2C93.8 269.9 95.6 267.9 97.9 266.4C100.1 264.8 102.9 263.9 105.7 263.7C108.6 263.5 111.5 264.2 114.1 265.6C116.7 267 119.1 269 121.1 271.2C122.2 272.3 123.1 273.6 124.2 274.6C125.3 275.5 126.6 276.3 128.1 276.7C131 277.5 134.3 276.9 136.7 275C139.2 273.1 140.9 270 141.1 266.8C141.3 263.6 141.1 260.1 141.1 256.7C141.033 249.833 140.967 242.8 140.9 235.6C140.8 221.2 140.6 206 140.5 190.2L140.9 190.6C119.8 190.7 97.3 190.7 73.8 190.8C50.4 190.8 25.8 190.9 0.5 191.1L1.1 190.6C1.1 204.1 1.1 217.9 1.1 231.9C1 287.5 1 340.5 1 388.3L0.5 387.9C54.1 387.9 101.5 388 139.3 388L139 388.3C139.6 357.7 140.2 333.1 140.5 316.1C140.567 313.967 140.6 311.967 140.6 310.1C140.7 308.2 140.8 306.5 140.4 304.9C139.8 301.7 138.1 299.4 136.4 298.1C134.6 296.7 133 296.1 131.9 295.9C130.8 295.7 130.2 295.7 130.2 295.7Z" fill="#263238"/>
<path opacity="0.3" d="M141 388.3C141 388.3 152.3 265.9 157.6 250.3C162.9 234.7 210.7 220.5 210.7 220.5L223.5 209.1L228.2 197.9V190.4H265.1L269.8 388.3H141Z" fill="black"/>
<path d="M373.4 117.1L380.6 102.5C377.4 93.7001 376.5 83.9001 378.5 74.0001C384.2 45.7001 411.9 27.4001 440.3 33.1001C468.6 38.9001 487 66.5001 481.2 94.9001C475.4 123.3 447.8 141.6 419.4 135.8C407.6 133.4 397.5 127.2 390.2 118.7L373.4 117.1Z" fill="white"/>
<path d="M373.4 117.1C373.4 117.1 373.8 117.1 374.6 117.2C375.333 117.267 376.4 117.333 377.8 117.4C380.667 117.667 384.8 118.033 390.2 118.5L390 118.8L389.2 117.3L390.3 118.5C394.7 123.6 401.6 129.4 411.3 133.1C416.1 135 421.7 136.1 427.6 136.4C433.6 136.6 439.9 135.9 446.2 133.7C452.5 131.6 458.7 128.2 464.1 123.4C469.5 118.6 474.2 112.5 477.3 105.4C483.6 91.3 483.4 73.1 474.7 58.4L473 55.7L471.1 53.1L470.2 51.9L469.1 50.7L467 48.3C464.1 45.4 460.9 42.7 457.4 40.5C450.4 36.2 442.6 33.6 434.9 32.8C427.1 32.1 419.5 33.1 412.7 35.5C405.8 37.9 399.7 41.7 394.8 46.1C384.9 55.2 379.8 66.8 378.3 77C376.8 87.3 378.6 96.1 380.8 102.4L380.9 102.5L380.8 102.6C378.467 107.267 376.667 110.833 375.4 113.3C374.8 114.5 374.333 115.433 374 116.1C373.6 116.8 373.4 117.1 373.4 117.1C373.4 117.1 373.567 116.8 373.9 116.2C374.167 115.533 374.6 114.6 375.2 113.4C376.4 110.867 378.133 107.2 380.4 102.4V102.6C378.1 96.3 376.2 87.4 377.6 76.9C379 66.6 384.2 54.7 394.2 45.5C399.2 40.9 405.4 37.1 412.3 34.6C419.3 32.2 427.1 31.1 435 31.8C442.9 32.6 450.8 35.2 457.9 39.7C461.5 41.8 464.7 44.6 467.8 47.6L469.9 50L471 51.2L472 52.5L473.9 55.1L475.6 57.9C484.5 72.9 484.7 91.5 478.2 105.8C475 113 470.3 119.3 464.7 124.1C459.2 129 452.9 132.5 446.5 134.6C440.1 136.7 433.6 137.4 427.6 137.2C421.6 136.9 416 135.7 411.1 133.8C401.2 130 394.4 124 390 118.8L390.4 118.6L390.5 119L390.2 118.9C384.733 118.367 380.533 117.933 377.6 117.6C376.267 117.467 375.233 117.367 374.5 117.3C373.767 117.167 373.4 117.1 373.4 117.1Z" fill="#263238"/>
<path d="M404.9 85.4001L411.6 78.7001L424.7 90.3001L450.4 65.6001L456.7 72.4001L423.8 103.4L404.9 85.4001Z" fill="#E31D39"/>
<path d="M316.4 806.6L314.7 850.7C314.7 850.7 359 867.2 359.5 875.3L273.9 875.2L273.7 806.4L316.4 806.6Z" fill="#263238"/>
<path d="M288.3 846.9C286.6 847.3 285.5 849.2 285.9 850.9C286.2 852.6 288.1 853.7 289.8 853.3C291.5 852.9 292.9 850.7 292.3 849.1C291.8 847.5 289.5 846.2 288 847" fill="#E0E0E0"/>
<path d="M273.9 875.2L274.1 868.2L356.1 871C356.1 871 359.9 872.7 359.5 875.3L273.9 875.2Z" fill="#455A64"/>
<path d="M316.1 850.2C316.1 850.6 314 850.8 312 852.2C309.9 853.5 308.8 855.3 308.4 855.1C308 855 308.7 852.5 311.2 850.9C313.7 849.3 316.2 849.8 316.1 850.2Z" fill="white"/>
<path d="M325.1 854C325.2 854.4 323.4 855.1 322 856.8C320.5 858.6 320.1 860.5 319.7 860.4C319.3 860.5 319 858.1 320.8 855.9C322.6 853.7 325.1 853.6 325.1 854Z" fill="white"/>
<path d="M330.2 864.7C329.8 864.8 329.2 862.7 330.3 860.4C331.4 858.1 333.3 857.2 333.5 857.6C333.8 857.9 332.5 859.1 331.6 861C330.7 862.9 330.6 864.7 330.2 864.7Z" fill="white"/>
<path d="M315.4 840.1C315.2 840.5 313.3 839.9 310.9 840.1C308.6 840.2 306.7 841 306.5 840.6C306.3 840.3 308.1 838.8 310.9 838.6C313.7 838.5 315.6 839.8 315.4 840.1Z" fill="white"/>
<path d="M211.6 800.6L207 853.7L215.4 896.9C216.1 900 213.9 903 210.8 903.4C209 903.6 207.3 902.9 206.1 901.6C198.4 893.3 170.5 862.6 171.1 858.7C171.7 854.2 172.2 802.3 172.2 802.3L211.6 800.6Z" fill="#263238"/>
<path d="M210.8 903.4L171.3 855.1L171.2 857.4C171 859.3 171.6 861.2 172.8 862.8C175.9 867 184.8 878.4 205.9 901.6C207.1 903 209 903.6 210.8 903.4Z" fill="#455A64"/>
<g opacity="0.6">
<path d="M183.3 838.6C184.6 839.6 184.9 841.7 184 843C183 844.3 180.9 844.6 179.6 843.7C178.3 842.7 177.9 840.2 179 839C180.1 837.8 182.6 837.6 183.6 838.8" fill="white"/>
</g>
<path d="M200.1 879.3C200.4 879.5 201.8 876.7 205 875.5C208.2 874.1 211.1 875 211.2 874.7C211.3 874.5 210.6 874.1 209.4 873.8C208.2 873.6 206.4 873.6 204.6 874.4C202.8 875.1 201.5 876.4 200.8 877.4C200.1 878.5 200 879.2 200.1 879.3Z" fill="white"/>
<path d="M203.4 886.7C203.7 886.9 205.5 885.3 208.3 884.7C211.1 884 213.4 884.7 213.5 884.3C213.7 884.1 211.2 882.8 208 883.5C204.8 884.3 203.2 886.5 203.4 886.7Z" fill="white"/>
<path d="M193.6 869.7C193.8 870 196.6 867.5 200.9 866.1C205.2 864.7 208.9 865.1 208.9 864.8C209 864.5 205.1 863.5 200.5 865C196 866.4 193.4 869.5 193.6 869.7Z" fill="white"/>
<path d="M193.7 853.4C193.8 853.7 196.8 852.7 200.6 852.8C204.5 852.9 207.5 854 207.6 853.7C207.8 853.5 204.8 851.7 200.7 851.6C196.5 851.5 193.5 853.2 193.7 853.4Z" fill="white"/>
<path d="M194.6 837.8C194.8 838.1 197.8 836.5 201.9 836.9C205.9 837.3 208.6 839.5 208.8 839.2C208.9 839.1 208.4 838.4 207.2 837.6C206 836.8 204.2 836 202 835.8C199.8 835.6 197.8 836 196.5 836.5C195.2 837.1 194.6 837.6 194.6 837.8Z" fill="white"/>
<path d="M202 834C202 834 202.2 833.3 202.2 831.9C202.1 830.6 201.9 828.7 200.9 826.6C200.4 825.5 199.9 824.2 198.4 823.4C197.7 823 196.6 823.1 195.9 823.8C195.3 824.4 195 825.3 194.9 826.1C194.8 829.5 197.5 833 201.2 833.7C205 834.3 208.6 832.4 210.3 829.6C210.7 828.8 211 827.9 210.7 827C210.3 826.1 209.2 825.6 208.5 825.7C206.9 825.8 205.8 826.7 204.8 827.3C202.9 828.7 201.7 830.1 200.9 831.2C200.2 832.3 199.9 833 200 833C200.2 833.2 201.5 830.5 205.3 828C206.3 827.4 207.4 826.7 208.5 826.7C209.1 826.7 209.5 826.9 209.7 827.4C209.9 827.8 209.7 828.5 209.4 829.1C208 831.4 204.7 833.1 201.5 832.5C198.3 832 195.9 828.9 196 826.2C196.1 825.5 196.3 824.9 196.6 824.5C197 824.2 197.5 824.1 198 824.3C199 824.8 199.7 826 200.2 826.9C202.2 831 201.7 834 202 834Z" fill="white"/>
<path d="M357.7 434.8C357.7 434.8 364.2 460 361.8 490.6C360.9 502.4 320.9 830.2 320.9 830.2H266.9L282.1 522.2L277.7 523.1C277.7 523.1 248.2 654.5 245.8 675.8C243.6 694.9 218.8 833.8 218.8 833.8L169.4 834.4L185.2 650.6L203.5 474.3L210.4 423L357.7 434.8Z" fill="#263238"/>
<path d="M280.1 501.2C280.1 501.267 280.233 501.4 280.5 501.6C280.7 501.8 281.2 502.1 281.8 502.2C283 502.6 285.1 502.4 286.9 501C288.9 499.7 290 497 290.4 494C290.8 491.1 290.9 488 291.1 484.6C291.4 478 291.7 471.9 291.9 467.5C292 463.2 292 460.5 291.9 460.5C291.7 460.4 291.4 463.1 291.1 467.5C290.8 471.9 290.4 477.9 290 484.6C289.8 487.9 289.8 491.1 289.5 493.9C289.1 496.7 288.1 499.2 286.5 500.4C284.8 501.8 283 502 281.9 501.8C280.7 501.7 280.2 501.2 280.1 501.2Z" fill="#455A64"/>
<path d="M200.7 469.6C200.7 469.6 201.2 469.8 202.2 470.1C203.2 470.4 204.7 470.7 206.5 470.8C210.2 471.2 215.5 470.8 220.8 468.7C226.1 466.6 230.1 463.2 232.5 460.4C233.7 459 234.6 457.8 235.1 456.9C235.7 456 235.9 455.5 235.9 455.4C235.7 455.3 234.5 457.3 232 459.9C229.5 462.5 225.5 465.7 220.4 467.7C215.3 469.8 210.2 470.2 206.6 470.1C203 469.9 200.8 469.4 200.7 469.6Z" fill="#455A64"/>
<path d="M336.2 455.8C336 455.9 336.1 458 337 461.3C337.8 464.6 339.5 469 342.4 473.3C345.3 477.7 348.7 481 351.4 483C354.1 485.1 356.1 486 356.1 485.9C356.4 485.6 348.9 481.3 343.3 472.8C337.5 464.2 336.5 455.7 336.2 455.8Z" fill="#455A64"/>
<path d="M331 106.6C335.9 106.9 340.7 103 341.5 98.1999C342.2 93.3999 338.9 88.1999 334.2 86.9999C337.1 83.6999 337.6 78.5999 335.4 74.8999C333.2 71.0999 328.5 69.0999 324.3 69.9999C323.9 65.6999 321.2 61.6999 317.3 59.8999C313.4 58.0999 308.6 58.3999 305.1 60.6999C300.2 56.8999 292.6 57.1999 287.9 61.2999C283.7 60.6999 279.3 63.0999 277.6 66.9999C275.8 70.7999 276.8 75.6999 280 78.4999" fill="#263238"/>
<path d="M286.2 71.1998L288.4 71.0998C310.5 69.9998 329.6 85.9998 332.5 107.9C335.2 128.2 337.8 150.7 338.3 161.7C339.1 184.4 316.6 189 316.6 189L319.9 216.2L264.7 217.2L254.9 118.6C251.7 95.1998 262.7 73.7998 286.2 71.1998Z" fill="#AE7461"/>
<path d="M316.8 189C316.8 189 302.3 190.6 286.6 181.8C286.6 181.8 294.4 197.8 317 194.6L316.8 189Z" fill="#6F4439"/>
<path d="M327 128.8C327.2 130.5 325.8 132 324 132.2C322.3 132.4 320.7 131.2 320.6 129.5C320.4 127.8 321.7 126.2 323.5 126C325.3 125.9 326.9 127.1 327 128.8Z" fill="#263238"/>
<path d="M328.2 119.2C327.8 119.7 325.3 118 321.8 118.1C318.3 118.3 315.8 120.2 315.4 119.8C315.2 119.6 315.6 118.8 316.7 118C317.7 117.1 319.6 116.2 321.7 116.1C323.9 116 325.8 116.7 326.9 117.5C328 118.3 328.4 119 328.2 119.2Z" fill="#263238"/>
<path d="M294.7 129.7C294.9 131.4 293.6 132.9 291.8 133.1C290 133.3 288.4 132.1 288.3 130.3C288.1 128.6 289.5 127.1 291.2 126.9C293 126.7 294.6 128 294.7 129.7Z" fill="#263238"/>
<path d="M293.9 121.6C293.6 122 291 120.3 287.5 120.5C284 120.6 281.6 122.6 281.2 122.1C281 122 281.4 121.2 282.4 120.3C283.5 119.5 285.3 118.6 287.5 118.5C289.7 118.4 291.5 119.1 292.6 119.9C293.7 120.6 294.1 121.4 293.9 121.6Z" fill="#263238"/>
<path d="M307.9 146.8C307.9 146.6 310 146.1 313.5 145.5C314.4 145.4 315.2 145.1 315.3 144.5C315.5 143.9 315.1 142.9 314.6 141.9C313.666 139.766 312.666 137.566 311.6 135.3C307.5 125.8 304.5 118 304.8 117.8C305.2 117.7 308.9 125.2 313 134.7C314 137.033 314.966 139.266 315.9 141.4C316.3 142.4 316.9 143.5 316.5 144.8C316.3 145.5 315.7 146 315.1 146.2C314.6 146.4 314.1 146.5 313.6 146.5C310.1 146.9 307.9 147 307.9 146.8Z" fill="#263238"/>
<path d="M296.3 108C295.9 108.9 292.9 108.1 289.2 108.2C285.5 108.1 282.4 109 282 108.1C281.9 107.7 282.5 106.8 283.8 106.1C285.1 105.3 287 104.6 289.2 104.6C291.4 104.6 293.4 105.2 294.6 106C295.9 106.8 296.5 107.6 296.3 108Z" fill="#263238"/>
<path d="M327.6 104.8C326.9 105.7 324 105 320.6 105.1C317.1 105.1 314.2 106 313.5 105.2C313.2 104.8 313.6 104 314.8 103.2C316.1 102.3 318.1 101.6 320.5 101.6C322.9 101.5 325 102.1 326.2 102.9C327.5 103.6 327.9 104.4 327.6 104.8Z" fill="#263238"/>
<path d="M329.8 97.5999C329.8 97.5999 323.1 83.6999 316.1 80.6999C307.6 77.0999 304.5 86.3999 296.5 84.5999C288.5 82.6999 280.4 79.2999 272.6 85.7999C264.1 92.8999 268.5 97.3999 268.4 107.5C268.2 148.4 261.3 160.3 258.3 141.2C257.9 139.1 252 137.7 250.7 128.9C249 117.4 247.9 103.4 250 95.0999C251.9 88.0999 255.5 83.0999 262.3 77.4999C273.1 68.6999 288.4 67.6999 298.8 68.2999C309.2 68.7999 329.9 79.6999 329.8 97.5999Z" fill="#263238"/>
<path d="M259.7 140.5C259.4 137 256.2 134.4 252.7 134.9C248.5 135.5 243.9 138.2 244.7 146.9C245.9 162.4 261.2 157.9 261.2 157.5C261.2 157.2 260.3 147 259.7 140.5Z" fill="#AE7461"/>
<path d="M257.3 151.9C257.3 151.9 257.1 152.1 256.7 152.4C256.2 152.6 255.5 152.8 254.6 152.6C253 152.1 251.4 149.6 251.1 146.8C250.9 145.4 251.1 144.1 251.5 142.9C251.9 141.8 252.6 140.9 253.4 140.7C254.2 140.4 254.8 140.9 255 141.3C255.3 141.7 255.2 142 255.3 142C255.3 142.1 255.6 141.8 255.4 141.1C255.3 140.8 255.1 140.5 254.7 140.2C254.3 139.9 253.8 139.8 253.2 139.9C252 140.1 251 141.3 250.6 142.6C250.1 143.8 249.8 145.4 250 147C250.3 150.1 252.2 152.9 254.5 153.3C255.6 153.5 256.5 153.1 256.9 152.7C257.3 152.3 257.4 151.9 257.3 151.9Z" fill="#6F4439"/>
<path d="M258.5 110.5C260.6 111.7 262.8 113 265.2 113.2C267.6 113.3 270.4 111.8 270.6 109.3C270.8 108.2 270.4 107 271.1 106.1C271.9 105.1 273.5 105.3 274.8 105.4C279.3 105.7 284.4 100.4 285.3 95.9999C286.5 97.5999 289.1 97.9999 290.7 96.7999C292.4 95.5999 293 94.8999 294.3 93.2999C295.6 91.6999 297.4 90.1999 299.5 90.3999C300.7 90.4999 301.8 91.0999 302.9 90.9999C304.9 90.6999 305.8 88.1999 306 86.1999C306.2 84.1999 306.4 81.7999 308 80.5999C309.6 79.4999 311.7 79.9999 313.6 80.1999C315.5 80.3999 317.9 79.7999 318.2 77.9999C318.4 76.9999 318 75.9999 317.4 75.1999C314.8 71.4999 309.5 70.0999 305.4 71.9999C303.6 66.8999 298.6 63.1999 293.3 62.8999C287.9 62.5999 282.5 65.6999 280.2 70.5999C276.8 67.7999 272 66.6999 267.7 67.8999C263.4 69.0999 259.8 72.4999 258.4 76.6999C254.6 75.8999 250.3 77.5999 248.1 80.7999C245.9 83.9999 245.7 88.4999 247.8 91.7999C245.1 93.5999 242.9 96.3999 243 99.6999C243.1 102.9 246.4 105.9 249.4 104.9C248.3 107.5 249.5 110.8 252 112.1C254.4 113.4 257.9 112.4 259.3 110" fill="#263238"/>
<path d="M306.7 76.4998C306.767 76.4998 306.8 76.5998 306.8 76.7998C306.7 76.8998 306.7 77.1998 306.7 77.5998C306.6 78.2998 306.4 79.3998 305.7 80.5998C305.1 81.8998 304.1 83.2998 302.5 84.4998C300.9 85.6998 298.7 86.5998 296.2 86.5998L296.4 86.1998C297 87.4998 296.9 89.0998 296.3 90.4998C295.8 91.9998 294.9 93.1998 293.9 94.4998C293.4 95.0998 292.9 95.7998 292.2 96.2998C291.5 96.8998 290.7 97.1998 289.8 97.3998C288.1 97.6998 286.1 97.1998 284.7 95.7998L285.3 95.5998C285.1 98.6998 283.5 101.9 280.8 103.9C279.4 105.1 277.6 105.8 275.8 105.9C274 105.9 272.3 105.5 270.7 105L271.1 104.8C270.4 106.8 269.2 108.5 267.7 109.8C266.2 111.1 264.2 111.9 262.3 111.5C258.6 110.9 256.1 108 255.4 105.2L255.8 105.3C254 106.4 252.1 106.6 250.5 106.4C248.9 106.1 247.6 105.5 246.7 104.9C245.8 104.2 245.2 103.5 244.9 103.1C244.567 102.566 244.4 102.3 244.4 102.3C244.5 102.2 245 103.4 246.8 104.7C247.8 105.2 249 105.8 250.5 106C252.1 106.2 253.9 105.9 255.5 104.9L255.8 104.7L255.9 105C256.5 107.7 259 110.4 262.4 110.9C264.1 111.2 265.9 110.5 267.3 109.3C268.7 108.1 269.8 106.4 270.5 104.6L270.6 104.3L270.9 104.4C272.4 104.8 274.1 105.3 275.7 105.2C277.4 105.1 279 104.5 280.4 103.4C282.9 101.5 284.4 98.4998 284.7 95.5998V94.7998L285.2 95.3998C286.4 96.5998 288.2 96.9998 289.7 96.7998C290.5 96.5998 291.3 96.2998 291.9 95.8998C292.4 95.3998 292.9 94.6998 293.4 94.0998C294.4 92.8998 295.3 91.5998 295.8 90.2998C296.4 88.9998 296.4 87.5998 296 86.3998L295.8 86.0998H296.2C298.6 86.0998 300.7 85.2998 302.2 84.0998C303.8 82.9998 304.8 81.6998 305.5 80.4998C306.8 78.0998 306.6 76.3998 306.7 76.4998Z" fill="#455A64"/>
<path d="M307.7 158.8C307.6 158.2 303.8 159.2 300.3 156.6C296.8 154.1 296.1 150 295.6 150.1C295.3 150.1 295.1 151.2 295.5 152.9C295.9 154.6 297 156.9 299.2 158.4C301.4 160 303.8 160.2 305.4 160C307 159.7 307.8 159 307.7 158.8Z" fill="#263238"/>
<path d="M469.5 293.1L411.3 338.4C411.3 338.4 403.6 304.5 383 253.7C379.9 246.1 376.6 240 373.5 235.3C373.233 234.833 373 234.367 372.8 233.9C365.1 219.5 348.9 213.2 338.8 212.6C337.3 212.5 333.5 212.6 328.2 212.9L324.4 211.6L320.1 198.8L309.8 210.2L260.8 187L256.1 205.1L221.1 220.5C221.1 220.5 189 227.7 184.9 255.4C180.2 287.2 176 360.1 176 360.1L215.9 339.7L206.3 412.5L208.6 439.3L300 454.3C304.9 455 309.9 455 314.9 454.3L359.9 447.6L365.3 434.8L360.2 353.5V348.3C365.8 362.7 378.8 392.5 392 397.4C404.9 402.2 473.2 338.4 473.2 338.4L469.5 293.1Z" fill="#E0E0E0"/>
<path d="M260.8 187C260.8 187 266.3 188.6 280.4 196.1C294.2 203.5 309.8 210.2 309.8 210.2L308.7 232.3L256.4 206.1" fill="#E0E0E0"/>
<path d="M320.1 198.8L309.8 210.2L315.3 233.9L324.5 212.5" fill="#E0E0E0"/>
<g opacity="0.3">
<path d="M310 212.6C310.5 213 313.3 240.1 313.3 240.1L261 208.4L308.7 232.3L310 212.6Z" fill="black"/>
</g>
<path d="M309.7 313.7C308.9 293 312.2 240.1 312.2 240.1L319 239C319 239 331.7 290.4 336.5 353.3C338.4 378.8 338.4 408.3 338.4 408.3L324.7 437.7L309.6 408.5C309.6 408.5 310.6 338.8 309.7 313.7Z" fill="#455A64"/>
<path d="M210.9 226.9C210.8 227 212.3 228.1 214.4 230.3C216.5 232.5 219.2 235.8 221.4 239.9C223.6 243.9 224.9 248 225.5 251C226.2 253.9 226.3 255.8 226.4 255.8C226.5 255.8 226.5 255.3 226.5 254.5C226.4 253.6 226.3 252.4 226 250.8C225.5 247.8 224.3 243.7 222.1 239.5C219.8 235.4 217 232.1 214.8 229.9C213.7 228.9 212.7 228.1 212 227.6C211.3 227.1 210.9 226.8 210.9 226.9Z" fill="#263238"/>
<path d="M309.7 220.8L314.4 219L318.8 226.6L319.6 239L313.3 240.1L308.7 232.3L309.7 220.8Z" fill="#455A64"/>
<path d="M360.2 257.9C360 257.9 359.9 285 359.9 318.3C359.9 351.6 360 378.7 360.2 378.7C360.4 378.7 360.6 351.6 360.6 318.3C360.6 285 360.4 257.9 360.2 257.9Z" fill="#263238"/>
<path d="M309.4 210C309.3 210.1 310.4 211.7 312 214.5C313.7 217.3 315.9 221.2 318 225.6C318.133 226 318.3 226.367 318.5 226.7L318.8 227.4L319.1 226.7C321.1 222.5 322.6 218.5 323.5 215.7C323.9 214.2 324.3 213 324.5 212.2C324.7 211.4 324.7 211 324.7 210.9C324.6 210.9 324 212.7 323 215.5C322 218.3 320.5 222.2 318.5 226.4H319.1C318.967 226.067 318.8 225.7 318.6 225.3C316.5 220.8 314.2 217 312.5 214.2C311.6 212.9 310.8 211.8 310.3 211.1C309.7 210.4 309.4 210 309.4 210Z" fill="#263238"/>
<path d="M256.1 205.1C256.1 205.167 256.333 205.333 256.8 205.6C257.333 205.867 258.033 206.233 258.9 206.7C260.8 207.7 263.5 209 266.7 210.7C273.3 214.1 282.3 219 292.3 224.3C298.4 227.6 304.1 230.6 309.1 233.1L309.6 233.3V232.8C309.7 226.3 309.7 220.8 309.8 216.9C309.8 215.033 309.8 213.533 309.8 212.4C309.7 211.3 309.7 210.8 309.7 210.8C309.6 210.8 309.6 211.3 309.6 212.4C309.533 213.533 309.467 215.033 309.4 216.9C309.3 220.8 309.1 226.3 309 232.8L309.4 232.5C304.4 230 298.7 226.9 292.6 223.7C282.6 218.4 273.6 213.6 266.9 210.2C263.6 208.6 260.9 207.3 259 206.4C258.133 206 257.4 205.667 256.8 205.4C256.333 205.2 256.1 205.1 256.1 205.1Z" fill="#263238"/>
<path d="M353.9 222.2C353.8 222.3 354.6 223.7 355.7 226C356.8 228.4 358 231.8 358.7 235.7C359.4 239.5 359.5 243.1 359.3 245.7C359.2 248.3 358.9 249.9 359 249.9C359.1 249.9 359.2 249.5 359.3 248.8C359.5 248.1 359.7 247.1 359.8 245.8C360.1 243.2 360.1 239.5 359.4 235.5C358.7 231.6 357.4 228.1 356.2 225.8C355.6 224.6 355 223.7 354.6 223.1C354.2 222.5 354 222.2 353.9 222.2Z" fill="#263238"/>
<path d="M314.5 240.9C314.6 241 315.8 240.5 317.1 239.6C318.5 238.8 319.5 237.9 319.4 237.8C319.3 237.6 318.1 238.1 316.7 239C315.4 239.9 314.4 240.7 314.5 240.9Z" fill="#263238"/>
<path d="M312.2 237.8C312.4 237.9 313.8 235.1 315.4 231.5C317 227.9 318.1 225 317.9 224.9C317.7 224.8 316.3 227.6 314.7 231.2C313.2 234.8 312.1 237.7 312.2 237.8Z" fill="#263238"/>
<path d="M205.4 228.3C205.4 228.3 189.2 240 187.2 246.4C185.2 252.8 176.6 357.5 175 370C173.5 382.4 172 405.7 181.6 413.3C191.2 420.9 212 426.6 212 426.6L231.2 387L221 365.7L231.2 286.2L205.4 228.3Z" fill="#E0E0E0"/>
<path d="M207.4 425.2C207.4 425.2 207.733 425.167 208.4 425.1C209.1 425.1 210.1 425.1 211.4 424.9C213.9 424.6 217.8 423.9 221.7 421.2C225.7 418.5 229.3 413.8 231.6 407.7C234 401.6 235.3 394.2 235.4 386.3L235.5 386.6C230.9 380.2 225.8 373.3 220.6 366L220.5 365.9V365.7C220.567 365.167 220.633 364.6 220.7 364C223.6 341.7 226.2 321.5 228.1 306.8C229 299.5 229.8 293.7 230.3 289.5C230.567 287.5 230.767 285.933 230.9 284.8C231.1 283.7 231.1 283.1 231.2 283.1C231.2 283.1 231.2 283.233 231.2 283.5C231.2 283.833 231.167 284.267 231.1 284.8C231.033 285.933 230.9 287.5 230.7 289.5C230.3 293.6 229.6 299.5 228.8 306.9C227.1 321.5 224.6 341.8 221.7 364.1C221.633 364.7 221.567 365.267 221.5 365.8L221.4 365.4C226.6 372.7 231.7 379.7 236.2 386.1L236.3 386.2V386.3C236.2 394.4 234.8 401.7 232.4 407.9C230 414.2 226.2 419 222.1 421.7C220.1 423 218 423.9 216.2 424.4C215.733 424.533 215.267 424.667 214.8 424.8C214.4 424.867 214 424.933 213.6 425C212.8 425.133 212.067 425.2 211.4 425.2C210.1 425.4 209.1 425.3 208.4 425.3C207.733 425.233 207.4 425.2 207.4 425.2Z" fill="#263238"/>
<path d="M187.8 373.1C187.7 373 189.2 371.6 192 370C194.8 368.4 199 366.7 203.9 365.7C208.8 364.8 213.3 364.8 216.5 365.3C219.7 365.7 221.6 366.4 221.6 366.5C221.5 366.9 213.7 364.8 204.1 366.7C194.5 368.5 187.9 373.4 187.8 373.1Z" fill="#263238"/>
<path d="M281.9 317.8C281.3 324.7 275.3 329.8 268.4 329.2C264.9 328.9 261.8 327.2 259.7 324.5C256.3 320.2 250.2 313.9 242.5 313.3C230.6 312.2 221.4 321.1 220.2 334.6C219 348.2 226.5 358.5 238.5 359.6C246.2 360.2 253.3 355.2 257.3 351.5C259.8 349.1 263.3 348.1 266.7 348.3C273.6 348.9 278.7 355 278.1 361.9L270.7 446.5L459.1 459.2L465.4 370.2C466 363.3 472.1 358.2 478.9 358.8C482.4 359.1 485.6 360.8 487.7 363.6C491 367.9 497.1 374.1 504.8 374.8C516.8 375.8 526 367 527.2 353.4C528.3 339.8 520.8 329.5 508.8 328.5C501.1 327.8 494.1 332.9 490 336.6C487.5 338.9 484.1 340 480.6 339.7C473.7 339.1 467.4 333.7 468 326.8L473.1 251.2L286.5 238.6L281.9 317.8Z" fill="black"/>
<path d="M281.9 317.8C281.3 324.7 275.3 329.8 268.4 329.2C264.9 328.9 261.8 327.2 259.7 324.5C256.3 320.2 250.2 313.9 242.5 313.3C230.6 312.2 221.4 321.1 220.2 334.6C219 348.2 226.5 358.5 238.5 359.6C246.2 360.2 253.3 355.2 257.3 351.5C259.8 349.1 263.3 348.1 266.7 348.3C273.6 348.9 278.7 355 278.1 361.9L270.7 446.5L459.1 459.2L465.4 370.2C466 363.3 472.1 358.2 478.9 358.8C482.4 359.1 485.6 360.8 487.7 363.6C491 367.9 497.1 374.1 504.8 374.8C516.8 375.8 526 367 527.2 353.4C528.3 339.8 520.8 329.5 508.8 328.5C501.1 327.8 494.1 332.9 490 336.6C487.5 338.9 484.1 340 480.6 339.7C473.7 339.1 467.4 333.7 468 326.8L473.1 251.2L286.5 238.6L281.9 317.8Z" fill="#890013"/>
<path d="M269.3 316.9C268.7 323.8 262.6 328.9 255.7 328.3C252.3 328 249.1 326.3 247 323.6C243.6 319.3 237.6 313 229.8 312.4C217.9 311.3 208.7 320.2 207.5 333.7C206.3 347.3 213.8 357.6 225.8 358.6C233.5 359.3 240.6 354.2 244.6 350.6C247.2 348.2 250.6 347.1 254 347.4C260.9 348 266 354.1 265.4 361L258 445.6L446.4 458.3L452.7 369.3C453.3 362.4 459.4 357.3 466.3 357.9C469.7 358.2 472.9 359.9 475 362.6C478.3 367 484.4 373.2 492.1 373.9C504.1 374.9 513.3 366.1 514.5 352.5C515.7 338.9 508.1 328.6 496.2 327.6C488.4 326.9 481.4 332 477.3 335.7C474.8 338 471.4 339.1 467.9 338.8C461 338.2 454.7 332.8 455.3 325.9L460.4 250.3L273.8 237.7L269.3 316.9Z" fill="#E31D39"/>
<path d="M269.3 316.9C269.3 316.9 269.3 316.467 269.3 315.6C269.367 314.667 269.433 313.333 269.5 311.6C269.7 308.1 270 302.9 270.3 296.2C271.1 282.7 272.2 262.9 273.6 237.7V237.4L273.9 237.5C319.6 240.5 384 244.8 460.5 249.9H460.9V250.3C459.6 269.1 458.3 288.6 457 308.9C456.667 313.967 456.333 319.067 456 324.2C455.9 325.5 455.7 326.8 455.9 328C456 329.2 456.4 330.4 457 331.5C458.2 333.7 460.1 335.5 462.4 336.6C464.6 337.8 467.2 338.4 469.7 338.3C472.3 338.2 474.8 337.2 476.7 335.5C480.6 332 485.3 328.7 490.7 327.5C492.1 327.2 493.5 327 494.9 327C496.3 327 497.6 327.2 499 327.5C501.7 328.1 504.3 329.3 506.6 330.9C511.2 334.3 513.9 339.7 514.8 345.3C515.6 350.9 514.9 356.7 512.6 361.9C510.3 367.2 505.9 371.7 500.3 373.5C497.6 374.4 494.6 374.6 491.7 374.3C488.8 374 486 372.9 483.5 371.3C481 369.8 478.8 367.8 476.9 365.7C475.9 364.6 475 363.4 474.1 362.3C473.2 361.3 472 360.5 470.8 359.8C468.4 358.5 465.5 358.1 462.7 358.7C460 359.2 457.5 360.8 455.8 363C454 365.2 453.2 367.9 453.1 370.9C452.9 373.767 452.7 376.667 452.5 379.6C450.6 406.4 448.7 432.7 446.9 458.4V458.9L446.4 458.8C378 454.2 314.2 449.9 258 446.1L257.5 446V445.6C259.2 426.4 260.9 408.1 262.4 390.6C263.2 381.867 263.967 373.367 264.7 365.1C264.8 363.1 265.1 361 265 359C264.9 357.1 264.3 355.1 263.2 353.5C261.2 350.1 257.5 348 253.7 347.8C251.8 347.7 249.9 348 248.2 348.7C247.333 349.033 246.533 349.5 245.8 350.1C245.1 350.6 244.4 351.3 243.6 351.9C240.7 354.3 237.5 356.4 234.1 357.7C227.1 360.5 219.1 358.5 214.1 354C211.6 351.6 209.7 348.7 208.6 345.6C207.5 342.5 207.1 339.3 207.1 336.2C207.2 330 209 324 212.5 319.5C216 315 221.3 312.5 226.3 312.1C231.3 311.6 236.1 313.4 239.6 316C243.2 318.5 245.7 321.8 248.1 324.6C250.6 327.2 254 328.2 257 328.2C260 328.1 262.5 327.1 264.3 325.7C266.1 324.3 267.2 322.7 267.9 321.4C269.3 318.6 269.2 316.9 269.3 316.9C269.3 316.9 269.233 317.3 269.1 318.1C269 318.8 268.8 320 268.1 321.4C267.4 322.8 266.3 324.5 264.4 325.9C262.6 327.3 260 328.4 257 328.5C254 328.5 250.5 327.5 247.8 324.8C245.4 321.9 242.9 318.8 239.3 316.3C235.9 313.8 231.3 312.1 226.3 312.6C221.4 312.9 216.3 315.4 212.9 319.8C209.5 324.2 207.7 330.1 207.7 336.2C207.6 339.3 208.1 342.4 209.2 345.4C210.3 348.4 212.1 351.2 214.5 353.5C219.4 357.9 227.1 359.8 233.8 357.1C237.2 355.8 240.3 353.8 243.2 351.4C243.9 350.8 244.6 350.1 245.4 349.5C246.2 348.9 247.033 348.4 247.9 348C249.7 347.3 251.8 346.9 253.8 347.1C257.8 347.3 261.7 349.5 263.9 353.1C265 354.8 265.7 356.9 265.8 359C265.9 361.1 265.6 363.1 265.4 365.2C264.733 373.467 264 381.967 263.2 390.7C261.7 408.2 260.1 426.5 258.4 445.7L258 445.2C314.2 448.9 378.1 453.2 446.4 457.8L445.9 458.3C447.7 432.7 449.6 406.4 451.5 379.6C451.7 376.667 451.9 373.733 452.1 370.8C452.1 367.9 453 364.7 454.9 362.3C456.8 360 459.6 358.3 462.5 357.6C465.5 357 468.6 357.5 471.3 358.9C472.6 359.6 473.9 360.5 474.9 361.7C475.8 362.8 476.6 363.9 477.6 365C479.5 367.1 481.7 369 484 370.4C486.4 371.9 489.1 373 491.8 373.3C494.6 373.6 497.4 373.3 500 372.5C505.3 370.8 509.5 366.5 511.7 361.5C513.9 356.5 514.5 350.8 513.8 345.4C512.9 340.1 510.3 334.9 506 331.8C503.9 330.2 501.4 329.1 498.8 328.5C497.5 328.2 496.2 328 494.8 328C493.5 328 492.2 328.2 490.9 328.5C485.8 329.7 481.3 332.8 477.4 336.3C475.3 338.1 472.5 339.2 469.8 339.3C467 339.4 464.3 338.8 461.9 337.5C459.5 336.3 457.4 334.4 456.1 332C455.5 330.8 455.1 329.5 454.9 328.1C454.7 326.7 454.9 325.4 455 324.1C455.333 318.967 455.667 313.867 456 308.8C457.4 288.6 458.7 269 460 250.3L460.4 250.8C383.9 245.5 319.6 241.1 273.8 238L274.1 237.7C272.6 262.9 271.4 282.7 270.6 296.2C270.2 303 269.9 308.1 269.6 311.6C269.533 313.333 269.467 314.667 269.4 315.6C269.333 316.467 269.3 316.9 269.3 316.9Z" fill="#263238"/>
<path d="M247.3 403.5C247.3 403.5 253.8 398.5 258.6 398.3C263.4 398.1 269.7 400 270.9 399.4C272.2 398.7 275.1 396 277 398.3C278.9 400.6 281.2 409 271.2 411.3H264.2C264.2 411.3 265.1 418.2 266.8 420.9C268.4 423.7 291.9 453.2 291.9 453.2C291.9 453.2 294.8 456.1 293.4 459C291.9 462 285.6 460.3 285.6 460.3C285.6 460.3 281.2 464.3 276.2 462.4C271.2 460.5 269.1 459 269.1 459C269.1 459 263.6 463.4 257.8 459C251.9 454.6 232.3 430.1 232.3 430.1L239.3 402.7L247.3 403.5Z" fill="#D5B8B0"/>
<path d="M226.9 387.3L247.3 403.5L232.3 430.1L202.5 419.3C202.5 419.3 203.4 387.9 226.9 387.3Z" fill="#D5B8B0"/>
<path d="M456.7 278.2C456.7 278.2 457.7 271.1 472.6 273.5C482 275 477.1 281.1 477.1 281.1C477.1 281.1 482.4 286.1 476.1 290.5L477.1 291.2C477.1 291.2 484.5 294.9 478.1 301.6C478.1 301.6 480.5 305.9 477.2 309.1C474 312.3 466 308 466 308C466 308 454.6 307.8 454 304.8C453.3 301.8 455.6 300.6 456.2 300.2C456.9 299.7 464.2 299.2 464.2 299.2C464.2 299.2 454.2 299.1 453.3 297.2C451.7 293.7 452.1 290.1 464.2 290.6C464.2 290.6 455.2 290.4 454.2 288.5C453 286.4 454.4 283.8 457.6 282.3C460.9 280.8 463.7 281 463.7 281C463.7 281 455.4 282.7 456.7 278.2Z" fill="#D5B8B0"/>
</svg>
