<svg width="50" height="50" viewBox="0 0 50 50" fill="none" xmlns="http://www.w3.org/2000/svg">
<path fill-rule="evenodd" clip-rule="evenodd" d="M0 11.1429C0 9.95939 0.95939 9 2.14286 9H10.7143C11.8978 9 12.8571 9.95939 12.8571 11.1429C12.8571 12.3263 11.8978 13.2857 10.7143 13.2857H2.14286C0.95939 13.2857 0 12.3263 0 11.1429ZM20 11.1429C20 9.95939 20.9594 9 22.1429 9H47.8571C49.0406 9 50 9.95939 50 11.1429C50 12.3263 49.0406 13.2857 47.8571 13.2857H22.1429C20.9594 13.2857 20 12.3263 20 11.1429Z" fill="black"/>
<path fill-rule="evenodd" clip-rule="evenodd" d="M0 39.7141C0 38.5307 0.95939 37.5713 2.14286 37.5713H27.8571C29.0406 37.5713 30 38.5307 30 39.7141C30 40.8976 29.0406 41.857 27.8571 41.857H2.14286C0.95939 41.857 0 40.8976 0 39.7141ZM37.1429 39.7141C37.1429 38.5307 38.1022 37.5713 39.2857 37.5713H47.8571C49.0406 37.5713 50 38.5307 50 39.7141C50 40.8976 49.0406 41.857 47.8571 41.857H39.2857C38.1022 41.857 37.1429 40.8976 37.1429 39.7141Z" fill="black"/>
<path fill-rule="evenodd" clip-rule="evenodd" d="M0 25.4285C0 24.245 0.95939 23.2856 2.14286 23.2856H47.8571C49.0406 23.2856 50 24.245 50 25.4285C50 26.612 49.0406 27.5714 47.8571 27.5714H2.14286C0.95939 27.5714 0 26.612 0 25.4285Z" fill="black"/>
</svg>
