<svg width="15" height="16" viewBox="0 0 15 16" fill="none" xmlns="http://www.w3.org/2000/svg">
<path d="M14.7416 2.00627C15.0861 1.66169 15.0861 1.10302 14.7416 0.758435C14.397 0.413855 13.8383 0.413855 13.4937 0.758435L7.5 6.75216L1.50627 0.758435C1.16169 0.413855 0.603016 0.413855 0.258436 0.758435C-0.0861441 1.10302 -0.0861441 1.66169 0.258436 2.00627L6.25216 8L0.258435 13.9937C-0.0861449 14.3383 -0.086145 14.897 0.258435 15.2416C0.603016 15.5861 1.16169 15.5861 1.50627 15.2416L7.5 9.24783L13.4937 15.2416C13.8383 15.5861 14.397 15.5861 14.7416 15.2416C15.0861 14.897 15.0861 14.3383 14.7416 13.9937L8.74784 8L14.7416 2.00627Z" fill="black"/>
</svg>
