<svg width="613" height="468" viewBox="0 0 613 468" fill="none" xmlns="http://www.w3.org/2000/svg">
<path d="M565.34 260.748H496.992C492.778 260.748 489.33 257.3 489.33 253.086V218.912C489.33 214.698 492.778 211.25 496.992 211.25H565.34C569.554 211.25 573.002 214.698 573.002 218.912V253.086C573.002 257.3 569.554 260.748 565.34 260.748Z" fill="#E31D39"/>
<path d="M531.166 280.056L541.969 254.388H520.362L531.166 280.056Z" fill="#E31D39"/>
<path d="M530.936 227.493H550.474V230.405L560.052 224.888L550.474 219.294V222.206H530.936V227.493Z" fill="white"/>
<path d="M560.052 238.757H540.513V235.922L530.936 241.439L540.513 246.956V244.121H560.052V238.757Z" fill="white"/>
<path d="M518.906 243.814L517.986 244.12C517.986 244.12 515.075 240.825 513.542 237.224C512.01 233.623 512.01 229.179 512.01 229.179L512.699 228.949L508.562 218.988C507.796 219.601 507.106 220.367 506.493 221.286C504.194 225.271 504.424 231.324 506.799 237.224C509.098 243.201 511.627 248.488 516.224 251.782C518.982 253.775 521.281 254.158 523.12 253.851L518.906 243.814Z" fill="white"/>
<path d="M521.894 242.664L520.592 243.124L524.806 253.238C525.317 253.085 525.751 252.906 526.109 252.702C527.181 252.089 527.641 250.786 527.181 249.637L525.036 244.044C524.5 242.818 523.12 242.205 521.894 242.664Z" fill="white"/>
<path d="M511.78 217.303C511.269 217.456 510.707 217.711 510.094 218.069L514.308 228.183L515.764 227.57C516.99 227.034 517.603 225.654 517.144 224.428L514.921 218.682C514.385 217.456 513.006 216.843 511.78 217.303Z" fill="white"/>
<path d="M128.207 422.958V308.866C128.207 308.866 126.981 278.064 143.149 269.176C159.316 260.288 227.51 265.115 227.51 265.115V422.958H128.207Z" fill="#E31D39"/>
<path d="M248.811 158.226C248.811 158.226 244.673 192.782 243.064 195.617C241.455 198.529 241.455 198.529 241.455 198.529L233.563 203.893C233.563 203.893 248.811 225.424 267.507 228.948C286.203 232.396 284.594 221.363 284.594 221.363L281.759 215.31L285.59 182.362C285.59 182.362 251.646 166.807 248.811 158.226Z" fill="#FF9D8C"/>
<path d="M223.756 206.728L236.092 201.364C236.092 201.364 243.984 214.314 262.374 221.976C280.763 229.561 281.146 225.117 282.066 221.976C282.985 218.758 281.759 215.31 281.759 215.31L283.138 204.199L290.494 206.651L316.01 413.15L250.344 416.291L223.756 206.728Z" fill="white"/>
<path d="M284.288 204.429C284.288 204.429 288.732 214.697 292.869 238.756C297.007 262.892 300.762 303.426 301.758 331.316C302.677 359.284 303.29 422.957 303.29 422.957C303.29 422.957 385.123 422.957 386.043 422.957C387.039 422.957 392.709 391.619 392.709 391.619C392.709 391.619 356.543 360.586 354.704 355.529C353.401 352.158 354.014 289.48 348.651 260.67C343.287 231.784 336.314 225.96 321.68 218.758C306.661 211.325 284.288 204.429 284.288 204.429Z" fill="#0A4B70"/>
<path d="M327.427 386.638C326.967 386.638 326.66 386.332 326.66 385.872C326.66 383.65 326.201 351.392 325.817 320.283C325.434 289.098 325.051 256.916 325.051 254.617C325.051 254.158 325.434 253.851 325.817 253.851C326.277 253.851 326.584 254.158 326.584 254.617C326.584 256.916 326.967 289.098 327.35 320.206C327.733 351.392 328.193 383.573 328.193 385.872C328.193 386.332 327.81 386.638 327.427 386.638Z" fill="#8593B6"/>
<path d="M162.534 378.9L161.921 422.958H258.312C258.312 422.958 262.373 385.566 260.841 382.041C259.232 378.593 162.534 378.9 162.534 378.9Z" fill="#0A4B70"/>
<path d="M269.805 194.698C273.713 197.839 279.077 200.368 283.291 201.9L285.59 182.362C285.59 182.362 260.074 170.638 251.416 161.98C253.255 171.864 257.699 184.89 269.805 194.698Z" fill="#8E9BBB"/>
<path d="M315.397 93.8629C315.397 93.8629 321.986 105.28 323.289 119.225C324.591 133.17 323.289 169.03 311.872 184.201C300.455 199.449 276.702 195.005 265.898 185.81C256.014 177.382 246.206 168.034 243.678 149.644C241.149 131.255 249.118 96.3914 271.568 89.1122C294.095 81.8331 315.397 93.8629 315.397 93.8629Z" fill="#FF9D8C"/>
<path d="M343.977 403.035C343.977 403.035 342.827 403.035 341.142 403.035C340.759 402.959 340.299 403.035 339.839 402.959C338.23 402.959 336.238 402.882 334.169 402.805C333.76 402.805 333.326 402.805 332.866 402.805C330.874 402.729 329.189 402.959 327.579 402.882H327.503C327.196 402.882 326.66 402.959 326.277 402.959C326.124 402.959 325.894 402.959 325.817 402.959C324.898 402.805 324.668 402.576 323.672 402.116C322.369 401.579 304.976 397.672 290.801 397.748C276.625 397.825 263.906 398.744 261.837 397.059C259.768 395.296 258.542 377.52 270.649 376.294L285.514 381.964C285.514 381.964 319.457 377.903 331.87 387.098C344.36 396.293 343.977 403.035 343.977 403.035Z" fill="#FF9D8C"/>
<path d="M327.503 402.882C327.197 402.882 326.661 402.959 326.277 402.959C325.971 402.423 325.358 401.58 324.975 401.197C321.144 397.289 311.872 394.76 308.578 393.917C308.271 393.841 308.041 393.534 308.118 393.228C308.195 392.921 308.501 392.768 308.807 392.845C313.711 393.994 324.055 397.059 327.044 401.963C327.12 402.116 327.35 402.576 327.503 402.882Z" fill="#223A7A"/>
<path d="M334.169 402.806C333.76 402.806 333.326 402.806 332.866 402.806C328.652 395.143 321.832 392.998 313.404 390.239L312.867 390.086C312.561 390.01 312.408 389.626 312.484 389.32C312.638 389.09 312.944 388.86 313.251 389.013L313.71 389.167C322.675 392.002 329.878 394.3 334.169 402.806Z" fill="#223A7A"/>
<path d="M341.142 402.959C340.734 402.959 340.299 402.959 339.84 402.959C337.311 397.672 328.883 388.707 317.772 386.638C317.466 386.561 317.236 386.255 317.313 385.949C317.389 385.642 317.696 385.489 318.002 385.489C329.419 387.634 338.69 396.982 341.142 402.959Z" fill="#223A7A"/>
<path d="M251.34 134.013C251.34 134.013 258.313 130.642 263.217 121.294C268.121 111.946 267.508 103.517 267.508 103.517C267.508 103.517 276.396 102.138 289.652 106.046C302.984 110.03 318.845 115.394 332.177 107.808C345.51 100.223 345.51 88.0395 338.997 82.9058C331.718 77.2357 317.236 80.6837 317.236 80.6837C317.236 80.6837 322.829 75.3201 319.764 72.1786C316.776 68.9604 305.819 73.098 305.819 73.098C305.819 73.098 292.563 62.4475 267.354 63.7501C242.146 65.0527 230.039 82.5993 228.66 102.291C227.204 121.907 234.33 141.599 234.33 141.599L251.34 134.013Z" fill="black"/>
<path d="M302.447 138.764C300.991 142.288 301.068 146.349 300.684 150.104C300.455 153.016 299.918 156.387 302.523 158.379C303.826 159.299 309.803 161.827 306.738 163.896C305.588 164.662 303.596 164.432 302.217 164.356C301.297 164.305 300.378 164.254 299.459 164.203C298.462 164.126 297.466 163.819 296.47 163.819C295.934 163.819 295.704 164.586 296.24 164.892C297.773 165.888 300.148 166.195 301.987 166.271C303.903 166.348 305.129 166.271 306.814 165.429C307.887 164.969 308.883 164.203 309.036 162.977C309.19 161.597 308.193 160.371 307.121 159.605C305.971 158.686 304.439 158.303 303.29 157.383C301.604 156.234 301.681 154.165 301.834 152.326C302.14 147.805 303.136 143.361 303.52 138.917C303.596 138.227 302.677 138.227 302.447 138.764Z" fill="#8E9BBB"/>
<path d="M315.396 149.261C314.937 151.942 313.021 153.858 311.105 153.475C309.113 153.168 307.964 150.716 308.424 148.035C308.883 145.353 310.876 143.514 312.791 143.82C314.707 144.204 315.856 146.579 315.396 149.261Z" fill="black"/>
<path d="M291.184 147.192C290.724 150.027 288.655 152.172 286.586 151.789C284.517 151.483 283.215 148.954 283.598 146.042C284.058 143.131 286.127 141.062 288.195 141.368C290.264 141.675 291.567 144.28 291.184 147.192Z" fill="black"/>
<path d="M309.727 138.304C311.259 138.534 312.715 138.227 314.248 138.38C314.605 138.38 314.963 138.406 315.32 138.457C315.55 138.534 314.861 138.38 315.167 138.457C315.269 138.457 315.346 138.483 315.397 138.534C315.601 138.534 315.806 138.559 316.01 138.61C316.316 138.687 316.623 138.84 316.929 138.917C317.236 138.917 317.542 138.993 317.849 138.993C318.002 138.993 318.155 138.968 318.309 138.917C318.207 138.968 318.104 138.993 318.002 138.993C318.002 138.993 318.539 138.917 318.615 138.917C319.458 138.764 319.994 137.767 319.765 136.925C319.662 136.669 319.56 136.465 319.458 136.312C319.356 136.209 319.279 136.107 319.228 136.005C319.279 136.107 319.33 136.184 319.381 136.235C319.33 136.133 319.279 136.056 319.228 136.005C319.126 135.852 318.998 135.724 318.845 135.622C318.743 135.52 318.641 135.443 318.539 135.392C318.155 135.086 317.619 134.932 317.159 134.779C316.24 134.549 315.32 134.473 314.401 134.473C313.481 134.473 312.639 134.549 311.719 134.703C310.953 134.779 310.033 135.086 309.42 135.545C308.884 135.928 308.578 136.388 308.654 137.001C308.731 137.538 309.191 138.151 309.727 138.304Z" fill="black"/>
<path d="M292.869 134.013C292.665 133.911 292.461 133.809 292.256 133.706C292.027 133.63 291.567 133.4 291.95 133.553C291.797 133.502 291.643 133.425 291.49 133.323C290.877 133.017 290.264 132.864 289.575 132.634C288.195 132.327 286.663 132.174 285.13 132.327C283.598 132.557 282.142 132.94 280.763 133.706C280.533 133.86 280.38 133.936 280.227 134.166C280.124 134.268 280.022 134.396 279.92 134.549C279.92 134.498 279.946 134.447 279.997 134.396C279.537 134.703 279.307 135.162 279.307 135.699C279.307 136.158 279.537 136.618 279.997 136.848C280.533 137.154 280.993 137.001 281.529 136.848C281.274 136.848 281.018 136.848 280.763 136.848C281.146 136.925 281.453 136.925 281.912 136.848C281.912 136.848 282.372 136.771 282.066 136.771C281.836 136.848 282.525 136.771 282.602 136.695C282.679 136.695 283.138 136.695 282.679 136.695C282.73 136.695 282.806 136.695 282.908 136.695C283.164 136.644 283.419 136.618 283.675 136.618C284.696 136.516 285.743 136.465 286.816 136.465C287.787 136.414 288.757 136.414 289.728 136.465C290.136 136.465 290.545 136.465 290.954 136.465C291.184 136.465 291.107 136.541 290.954 136.465C291.056 136.516 291.133 136.541 291.184 136.541C291.388 136.593 291.567 136.644 291.72 136.695C292.41 137.001 293.176 136.465 293.482 135.852C293.712 135.162 293.482 134.396 292.869 134.013Z" fill="black"/>
<path d="M300.379 178.071C301.835 175.159 304.516 173.014 307.505 171.635C304.9 171.405 292.333 170.255 289.192 172.018C285.667 174.01 289.805 182.132 297.161 182.515C297.927 182.592 298.616 182.515 299.306 182.362C299.383 180.906 299.689 179.45 300.379 178.071Z" fill="black"/>
<path d="M242.452 161.06C242.452 161.06 243.678 165.964 251.034 171.711C258.313 177.381 268.887 181.595 268.887 181.595L269.73 177.917C269.73 177.917 258.773 173.167 253.716 167.88C248.582 162.67 247.969 159.834 247.969 159.834L242.452 161.06Z" fill="#DEE1EB"/>
<path d="M270.956 175.16C276.856 174.853 280.151 179.527 280.534 182.516C280.917 185.504 278.082 188.875 271.492 185.964C263.294 182.286 265.133 175.39 270.956 175.16Z" fill="black"/>
<path d="M247.049 124.818C247.049 124.818 249.578 106.582 261.761 94.1688C285.054 70.569 304.899 72.0249 304.899 72.0249C304.899 72.0249 304.746 68.6535 297.314 66.1249C290.264 63.7496 287.123 65.0522 287.123 65.0522C287.123 65.0522 267.967 66.5847 251.8 84.5144C235.632 102.444 233.87 125.278 233.87 125.278L247.049 124.818Z" fill="#DEE1EB"/>
<path d="M245.287 122.596C230.039 119.991 221.533 131.944 220.844 143.974C220.231 156.004 228.966 165.198 240.689 164.279C266.971 162.21 263.982 125.738 245.287 122.596Z" fill="white"/>
<path d="M237.701 152.555C233.64 152.555 230.269 150.487 228.277 146.962C226.208 143.131 226.361 138.457 228.736 135.009C228.966 134.702 229.273 134.626 229.579 134.856C229.809 135.009 229.886 135.392 229.732 135.622C227.587 138.763 227.434 142.978 229.349 146.426C231.112 149.644 234.253 151.559 238.008 151.406C241.456 151.33 244.444 149.72 246.283 146.885C248.428 143.667 248.965 139.3 247.586 135.622C246.206 132.021 242.452 129.569 239.004 130.028C238.697 130.028 238.391 129.875 238.391 129.492C238.314 129.186 238.544 128.956 238.851 128.879C242.835 128.343 247.049 131.101 248.658 135.239C250.114 139.223 249.578 144.05 247.279 147.575C245.134 150.64 241.915 152.402 238.008 152.555C237.906 152.555 237.803 152.555 237.701 152.555Z" fill="#E31D39"/>
<path d="M226.591 202.284C226.591 202.284 180.31 213.701 164.143 232.09C147.976 250.48 140.313 341.201 140.007 357.982C139.7 374.762 151.424 381.735 158.396 386.485C165.369 391.236 196.171 399.818 220.844 401.12C245.593 402.346 269.04 401.12 269.04 401.12C269.04 401.12 268.963 395.68 272.794 387.788C276.319 380.432 280.763 378.9 280.763 378.9L259.538 371.314C259.538 371.314 255.86 304.652 250.037 272.394C243.371 235.309 226.591 202.284 226.591 202.284Z" fill="#0A4B70"/>
<path d="M303.29 360.663C303.188 360.663 303.086 360.638 302.984 360.587C302.601 360.433 302.447 359.974 302.601 359.591C306.968 349.783 311.412 330.551 313.941 317.065L314.171 315.992C314.937 312.008 315.933 307.104 314.017 303.733C313.021 301.97 310.799 298.216 308.73 294.614C306.508 290.86 304.516 287.259 303.903 286.186C302.754 284.117 306.278 278.6 311.412 271.015C312.791 268.946 313.941 267.184 314.63 266.034C316.469 262.893 315.243 259.981 313.864 256.686L313.404 255.537C312.102 252.395 310.646 249.33 309.267 246.266C308.705 245.04 308.143 243.814 307.581 242.588C306.815 240.953 306.074 239.293 305.359 237.607C300.838 227.57 296.241 217.302 290.264 207.265C290.034 206.958 290.188 206.422 290.571 206.268C290.954 206.039 291.414 206.115 291.567 206.498C297.543 216.536 302.217 226.957 306.738 236.994C307.504 238.68 308.245 240.34 308.96 241.975C309.522 243.201 310.084 244.427 310.646 245.653C312.102 248.641 313.481 251.782 314.784 254.924L315.243 256.073C316.699 259.445 318.155 262.969 316.01 266.8C315.243 268.026 314.094 269.789 312.638 271.858C310.033 275.842 304.516 284.041 305.282 285.496C305.819 286.492 307.887 290.094 310.033 293.848C312.178 297.45 314.4 301.204 315.32 302.966C317.542 306.874 316.469 312.084 315.703 316.299L315.473 317.371C314.554 322.275 309.65 347.408 303.98 360.204C303.903 360.51 303.597 360.663 303.29 360.663Z" fill="#8593B6"/>
<path d="M258.159 363.345C257.93 363.345 257.7 363.268 257.623 363.115C253.945 359.514 236.628 329.401 235.326 323.731C234.636 320.666 236.399 312.774 238.084 305.188C239.464 299.288 240.843 293.235 240.46 291.549C239.847 289.097 235.403 285.496 231.112 281.971C225.901 277.757 220.538 273.313 219.465 269.405C218.316 264.885 219.312 236.841 220.001 218.221C220.231 211.555 220.461 206.268 220.461 204.353C220.461 203.97 220.768 203.586 221.227 203.586C221.61 203.586 221.994 203.97 221.994 204.353C221.994 206.268 221.764 211.555 221.534 218.298C220.921 235.615 219.848 264.731 220.997 269.022C221.917 272.47 227.281 276.914 232.031 280.822C236.782 284.653 241.226 288.255 241.915 291.243C242.375 293.235 241.073 298.905 239.617 305.495C238.008 312.621 236.169 320.666 236.782 323.424C238.084 328.941 255.171 358.441 258.696 362.042C259.002 362.349 259.002 362.808 258.696 363.115C258.543 363.268 258.364 363.345 258.159 363.345Z" fill="#8593B6"/>
<path d="M195.865 350.166C195.814 350.166 195.763 350.166 195.712 350.166C195.329 350.089 195.023 349.706 195.099 349.323C195.636 345.338 204.447 265.957 204.83 259.827C204.83 259.444 205.213 259.138 205.673 259.138C206.056 259.214 206.363 259.521 206.363 259.981C205.98 266.034 197.168 345.568 196.555 349.553C196.555 349.936 196.172 350.166 195.865 350.166Z" fill="#8593B6"/>
<path d="M258.925 371.773C258.823 371.773 258.721 371.748 258.619 371.697C256.703 370.93 248.045 368.019 237.165 364.341C215.174 356.909 185.061 346.718 179.314 343.729C178.931 343.576 178.778 343.116 179.008 342.733C179.161 342.35 179.621 342.197 180.004 342.427C185.597 345.339 216.936 355.912 237.624 362.885C248.581 366.563 257.24 369.475 259.232 370.241C259.615 370.394 259.768 370.854 259.615 371.237C259.538 371.543 259.232 371.773 258.925 371.773Z" fill="#8593B6"/>
<path d="M248.352 403.342C228.966 403.342 191.421 399.894 162.917 389.78C162.534 389.626 162.304 389.167 162.458 388.784C162.611 388.401 162.994 388.171 163.454 388.324C199.466 401.043 249.884 403.265 259.232 401.12C259.615 401.043 260.075 401.35 260.152 401.733C260.228 402.116 259.998 402.576 259.539 402.652C257.546 403.112 253.639 403.342 248.352 403.342Z" fill="#8593B6"/>
<path opacity="0.4" d="M26.6822 213.011C32.7354 218.298 40.3211 221.669 45.6081 227.799C47.6769 230.174 49.5158 232.78 51.4314 235.308C52.8872 237.147 56.6417 240.135 57.2547 242.434C57.4846 243.507 57.408 242.128 57.1781 241.055C57.127 241.055 57.1015 241.029 57.1015 240.978C56.5651 236.304 56.182 231.63 56.0288 226.88C55.8755 222.206 56.182 217.532 55.8755 212.781C55.4924 206.192 53.4236 199.832 47.9834 195.694C45.3782 193.702 42.0068 192.399 39.5549 190.177C37.2562 188.032 38.1757 185.657 39.5549 183.281C40.7808 181.059 42.3133 178.837 42.8496 176.309C43.386 173.397 42.3133 170.332 40.8575 167.88C37.7159 162.593 30.7433 156.77 24.1537 157.536C18.6369 158.226 18.0239 164.509 18.1005 168.953C18.1771 173.244 18.5602 177.535 18.6369 181.825C18.6369 186.27 17.9473 190.56 17.8706 195.005C17.7174 202.437 21.1654 208.184 26.6822 213.011Z" fill="#0A4B70"/>
<path opacity="0.4" d="M82.5399 281.588C84.2256 277.604 86.1411 273.926 88.5164 270.248C91.7346 265.267 95.3358 260.44 97.4813 254.847C99.7033 249.177 99.3969 243.047 99.6267 237.07C99.78 232.703 101.083 228.259 100.776 223.815C100.546 221.746 99.3202 218.298 96.6384 218.681C94.493 218.911 93.1904 221.592 92.4242 223.278C90.9684 226.19 89.9723 229.331 88.8995 232.473C88.5164 233.622 88.1333 234.848 87.5969 236.074C87.2905 236.687 86.2944 238.373 85.3749 238.143C83.8424 237.76 85.2217 231.4 85.4515 230.251C86.6009 224.657 88.3632 219.37 88.593 213.547C88.9762 205.119 88.3632 195.081 80.0879 190.407C77.9425 189.258 75.1841 188.491 73.1153 190.33C71.1231 192.093 70.5101 195.158 70.2036 197.686C69.2841 205.502 71.1231 212.934 73.6516 220.213C75.7204 226.266 78.1724 232.55 78.3256 238.986C78.4788 245.269 75.2607 250.786 73.7282 256.686C71.3529 266.034 71.8127 271.014 71.8127 274.079C71.8127 277.834 71.9659 281.665 72.1958 285.419C72.5023 288.944 72.8088 292.392 73.1919 295.917C73.294 296.581 73.3962 297.296 73.4984 298.062C72.1192 294.844 71.6594 291.166 70.5101 287.871C68.5945 282.124 66.2958 276.454 64.3803 270.708C62.8478 265.88 61.3153 261.053 59.2465 256.456C57.331 252.165 55.0323 247.568 51.3544 244.426C49.209 242.511 46.5272 241.361 43.6155 241.361C41.7766 241.438 40.0909 242.051 38.3285 242.511C36.1065 243.123 34.3442 242.894 32.5818 241.514C26.6053 236.994 24.8429 228.795 20.4754 223.048C17.1807 218.757 9.44175 211.478 3.77167 216.152C0.706761 218.604 -0.136085 223.431 0.0171605 227.109C0.247029 231.707 2.23921 235.921 4.69114 239.829C7.21969 243.89 10.5145 247.568 12.8898 251.782C14.269 254.31 14.4989 256.686 14.269 259.521C14.0391 262.126 13.8093 264.731 14.7287 267.26C17.4105 274.922 25.9156 273.849 32.5052 274.079C37.1026 274.232 42.0064 274.922 46.4505 276.378C51.5076 278.063 54.8024 281.358 56.5647 286.339C57.8673 290.017 58.5569 294.078 61.0855 297.143C62.2348 298.598 63.7673 299.671 65.453 300.437C67.9815 301.587 75.7971 302.046 75.8737 301.357C76.1035 298.981 77.2529 296.453 77.9425 294.154C79.2451 289.863 80.8542 285.726 82.5399 281.588Z" fill="#0A4B70"/>
<path opacity="0.4" d="M118.935 280.209C118.246 275.765 118.399 270.938 116.253 266.953C116.177 266.647 115.717 266.57 115.487 266.724C113.955 267.566 113.955 269.942 113.801 271.398C113.572 273.85 113.725 276.301 113.418 278.753C112.959 283.044 111.963 287.412 110.43 291.473C108.668 296.07 105.45 298.675 100.852 300.054C97.8639 300.974 94.9523 301.817 92.5003 303.732C90.2783 305.495 88.7458 307.947 87.5965 310.475C84.5316 317.448 83.0757 325.11 81.6199 332.543C80.7004 337.446 79.9342 342.504 78.7082 347.407C77.4823 352.311 76.1797 357.215 75.4901 362.196C75.3879 362.451 75.2858 362.706 75.1836 362.962C74.8005 363.728 76.0264 364.111 76.4096 363.498C81.1602 356.142 86.9835 349.629 94.8756 345.568C98.4769 343.729 103.228 343.346 106.216 340.511C108.438 338.289 108.744 334.994 108.438 332.006C107.978 328.098 106.139 324.957 104.147 321.586C103.074 319.823 101.848 317.831 102.308 315.609C102.691 313.54 104.453 312.008 106.139 310.935C109.434 308.866 113.265 307.947 115.947 305.035C118.475 302.277 119.855 298.905 120.161 295.227C120.544 290.323 119.701 285.036 118.935 280.209Z" fill="#0A4B70"/>
<path opacity="0.4" d="M53.9596 305.495C49.822 300.055 44.6883 295.381 39.0182 291.626C35.9533 289.557 28.8274 285.573 27.3715 291.549C26.5287 295.074 29.9001 298.522 32.1988 300.668C35.5702 303.962 39.4779 306.797 42.313 310.628C38.7883 311.778 35.1104 311.931 32.0455 314.383C28.3676 317.295 26.7586 322.888 30.3598 326.413C32.1221 328.175 34.4208 329.248 36.6429 330.32C39.4779 331.623 42.3896 332.926 45.3013 334.152C51.5843 336.757 57.944 339.439 63.3076 343.729C68.8244 348.097 73.9582 355.529 74.3413 362.732C74.4179 363.422 74.188 362.732 74.5711 362.425C74.801 362.655 75.5672 362.272 75.5672 361.889C75.414 351.239 73.4984 341.124 69.1309 331.393C65.1466 322.352 60.0895 313.31 53.9596 305.495Z" fill="#0A4B70"/>
<path d="M39.4779 206.575C41.7766 211.402 44.2285 216.076 46.8337 220.75C49.2856 225.271 51.7375 229.791 53.5765 234.542C55.8752 240.519 58.2505 246.342 60.7024 252.242C63.231 258.372 65.453 264.578 67.2153 270.938C70.74 283.351 73.3452 296.147 74.6477 308.943C75.2607 315.456 75.5672 322.045 75.414 328.635C75.2607 333.692 74.7244 338.826 74.188 343.883C73.7283 349.17 73.3452 354.533 73.8049 359.897C74.188 364.341 74.8776 369.628 78.3256 372.77C79.0152 373.459 79.9347 372.616 79.5516 371.85C75.4906 363.422 75.7205 354.227 76.4867 345.109C76.9464 340.128 77.4828 335.071 77.7127 330.014C77.8659 323.578 77.636 317.141 77.0231 310.705C75.8737 298.139 73.3452 285.649 70.0504 273.466C68.4413 267.183 66.3725 261.054 63.9206 255C61.5453 249.024 58.7868 243.124 56.4882 237.071C52.3505 226.037 45.9142 216.306 40.3208 206.115C40.0143 205.579 39.248 206.038 39.4779 206.575Z" fill="#43588E"/>
<path d="M74.8009 296.377C75.4905 288.331 76.1801 280.669 78.8619 273.007C80.1645 269.482 81.697 266.034 82.9229 262.433C83.919 259.521 85.3749 255.46 84.6086 252.319C84.532 251.935 83.9956 251.935 83.919 252.319C83.3827 254.081 83.4593 256.073 83.0762 257.912C82.7697 259.674 82.2333 261.437 81.697 263.199C80.5476 266.877 78.9385 270.402 77.636 274.079C75.0308 281.052 73.7282 288.868 74.2646 296.377C74.3412 296.683 74.8009 296.683 74.8009 296.377Z" fill="#43588E"/>
<path d="M28.4439 250.403C31.6621 258.065 41.1633 258.525 48.136 260.211C53.1164 261.437 56.7943 264.732 59.3995 269.099C62.3112 273.773 64.2267 279.29 65.8358 284.577C65.8358 284.577 65.9125 284.577 65.9125 284.5C63.9969 275.305 61.2385 264.272 51.7372 259.981C44.1516 256.533 34.114 258.295 29.2868 250.097C29.0569 249.637 28.2907 249.943 28.4439 250.403Z" fill="#43588E"/>
<path d="M69.8202 295.151C70.2033 295.687 70.5098 296.223 70.8929 296.683C71.1228 296.913 71.276 297.143 71.5825 297.373C71.8124 297.603 72.1189 297.832 72.4254 297.832C72.5786 297.832 72.6552 297.679 72.5786 297.526C72.4254 297.296 72.1955 297.143 71.9656 296.913C71.7102 296.709 71.4804 296.504 71.276 296.3C70.8163 295.917 70.4332 295.457 69.9734 294.997C69.8968 294.921 69.7436 295.074 69.8202 295.151Z" fill="#43588E"/>
<path d="M49.9747 319.517C55.4149 323.961 60.472 329.325 64.533 335.148C66.4486 337.906 68.2109 340.818 69.82 343.806C71.5823 347.101 72.7316 350.549 74.1109 353.921C74.1875 354.227 74.6472 354.227 74.6472 353.844C73.881 346.641 69.2836 340.435 65.6057 334.458C63.6902 331.317 61.3915 328.865 58.7863 326.26C56.1811 323.578 53.4993 320.973 50.4344 318.827C50.0513 318.597 49.5916 319.21 49.9747 319.517Z" fill="#43588E"/>
<path d="M93.5739 311.012C90.8921 312.468 90.8155 316.682 90.8155 319.287C90.6623 324.421 91.9648 329.248 89.7428 334.075C87.674 338.519 84.4558 342.197 81.9273 346.258C79.552 350.089 77.1766 354.993 77.2533 359.591C77.2533 359.821 77.6364 359.974 77.7896 359.744C78.7091 357.598 79.0922 355.223 79.7818 353.078C80.5481 350.626 81.6208 348.327 83 346.182C85.4519 342.427 88.4402 338.979 90.4324 334.842C92.5012 330.551 92.1947 326.336 92.1181 321.662C91.9648 318.674 91.735 313.924 94.1103 311.701C94.4934 311.318 93.957 310.782 93.5739 311.012Z" fill="#43588E"/>
<path d="M75.9498 360.051C65.2992 359.897 45.0708 359.744 45.0708 359.744L50.0513 396.983C51.2006 405.335 58.3265 411.541 66.755 411.541H75.49H76.3329H85.0679C93.4964 411.541 100.622 405.335 101.772 396.983L106.752 359.744C106.752 359.744 86.5237 359.897 75.9498 360.051Z" fill="#E31D39"/>
<path d="M589.17 291.707L528.698 412.074L352.405 413.38L406.761 290.017L589.17 291.707Z" fill="#E4E4E4"/>
<path d="M235.173 412.613V402.912H349.373L401.922 286.952H584.581L589.17 291.418H410.718L356.18 412.536C356.18 412.536 235.173 412.305 235.173 412.613Z" fill="#D9DEE8"/>
<path d="M497.682 357.982C495.69 363.958 484.886 368.556 473.47 368.326C462.129 368.019 454.544 362.962 456.536 356.909C458.528 350.932 469.332 346.335 480.749 346.641C492.089 346.871 499.674 352.005 497.682 357.982Z" fill="white"/>
<path d="M356.291 412.613C356.139 412.613 356.012 412.588 355.91 412.537C355.529 412.307 355.377 411.849 355.529 411.466L410.167 290.783H588.408C588.789 290.783 589.17 291.166 589.17 291.548C589.17 292.007 588.789 292.313 588.408 292.313H411.158L356.977 412.155C356.825 412.384 356.52 412.613 356.291 412.613Z" fill="white"/>
<path d="M226.744 467.782H16.7979V421.042H226.744V467.782Z" fill="#555555"/>
<path d="M603.728 467.782H225.978V421.042H603.728V467.782Z" fill="#848484"/>
<path d="M91.6747 423.341H91.2379H16.7979V431.769H91.2379H91.6747H225.978V423.341H91.6747Z" fill="black" fill-opacity="0.2"/>
<path d="M235.173 423.341H6.83691V411.848H235.173V423.341Z" fill="#959595"/>
<path d="M612.923 423.341H235.173V411.848H612.923V423.341Z" fill="#373737"/>
<path d="M173.797 167.65H99.6263C95.0289 167.65 91.2744 163.972 91.2744 159.375V122.289C91.2744 117.692 95.0289 114.014 99.6263 114.014H173.797C178.394 114.014 182.149 117.692 182.149 122.289V159.375C182.149 163.972 178.394 167.65 173.797 167.65Z" fill="#0A4B70"/>
<path d="M203.297 140.832L175.406 129.032V152.555L203.297 140.832Z" fill="#0A4B70"/>
<path d="M124.223 140.832C124.223 143.667 121.924 145.966 119.089 145.966C116.254 145.966 113.955 143.667 113.955 140.832C113.955 137.997 116.254 135.698 119.089 135.698C121.924 135.698 124.223 137.997 124.223 140.832Z" fill="white"/>
<path d="M141.846 140.832C141.846 143.667 139.547 145.966 136.712 145.966C133.877 145.966 131.578 143.667 131.578 140.832C131.578 137.997 133.877 135.698 136.712 135.698C139.547 135.698 141.846 137.997 141.846 140.832Z" fill="white"/>
<path d="M159.469 140.832C159.469 143.667 157.17 145.966 154.335 145.966C151.5 145.966 149.201 143.667 149.201 140.832C149.201 137.997 151.5 135.698 154.335 135.698C157.17 135.698 159.469 137.997 159.469 140.832Z" fill="white"/>
<path d="M551.624 0H380.295C369.338 0 360.374 8.96486 360.374 19.9219V101.219C360.374 112.252 369.338 121.141 380.295 121.141H395.697C396.08 128.496 395.007 139.453 388.877 153.475C408.646 144.357 420.063 130.642 426.039 121.141H551.624C562.658 121.141 571.546 112.252 571.546 101.219V19.9219C571.546 8.96486 562.658 0 551.624 0Z" fill="#0A4B70"/>
<path d="M478.526 38.7712H393.551C391.252 38.7712 389.337 36.8557 389.337 34.557C389.337 32.1817 391.252 30.2661 393.551 30.2661H478.526C480.901 30.2661 482.74 32.1817 482.74 34.557C482.74 36.8557 480.901 38.7712 478.526 38.7712Z" fill="white"/>
<path d="M539.441 63.3671H391.942C390.486 63.3671 389.337 62.2178 389.337 60.7619C389.337 59.3827 390.486 58.2334 391.942 58.2334H539.441C540.897 58.2334 542.046 59.3827 542.046 60.7619C542.046 62.2178 540.897 63.3671 539.441 63.3671Z" fill="white"/>
<path d="M539.441 77.7723H391.942C390.486 77.7723 389.337 76.623 389.337 75.1672C389.337 73.7113 390.486 72.562 391.942 72.562H539.441C540.897 72.562 542.046 73.7113 542.046 75.1672C542.046 76.623 540.897 77.7723 539.441 77.7723Z" fill="white"/>
<path d="M507.259 93.0971H391.942C390.486 93.0971 389.337 91.9477 389.337 90.4919C389.337 89.0361 390.486 87.8867 391.942 87.8867H507.259C508.715 87.8867 509.864 89.0361 509.864 90.4919C509.864 91.9477 508.715 93.0971 507.259 93.0971Z" fill="white"/>
<path d="M538.292 38.7712H497.758C495.46 38.7712 493.544 36.8557 493.544 34.557C493.544 32.1817 495.46 30.2661 497.758 30.2661H538.292C540.667 30.2661 542.506 32.1817 542.506 34.557C542.506 36.8557 540.667 38.7712 538.292 38.7712Z" fill="white"/>
<path d="M436.153 225.654H390.103C388.417 225.654 387.038 224.275 387.038 222.589V191.174C387.038 189.488 388.417 188.109 390.103 188.109H436.153C437.839 188.109 439.218 189.488 439.218 191.174V222.589C439.218 224.275 437.839 225.654 436.153 225.654Z" fill="#E31D39"/>
<path d="M413.473 212.475C413.167 212.475 412.937 212.398 412.707 212.245L387.651 191.557C387.192 191.097 387.115 190.407 387.498 189.948C387.958 189.411 388.648 189.335 389.107 189.794L413.397 209.87L437.073 189.258C437.61 188.798 438.299 188.875 438.759 189.335C439.142 189.794 439.065 190.561 438.606 190.944L414.24 212.168C414.01 212.398 413.703 212.475 413.473 212.475Z" fill="white"/>
<path d="M388.418 224.811C388.111 224.811 387.805 224.734 387.575 224.504C387.115 224.045 387.115 223.355 387.575 222.895L405.121 204.429C405.504 203.97 406.271 203.97 406.73 204.429C407.19 204.812 407.19 205.579 406.73 206.038L389.26 224.428C389.031 224.658 388.724 224.811 388.418 224.811Z" fill="white"/>
<path d="M437.839 224.121C437.532 224.121 437.302 224.045 437.073 223.815L419.603 206.268C419.143 205.809 419.143 205.119 419.603 204.659C420.062 204.2 420.752 204.2 421.212 204.659L438.682 222.129C439.141 222.589 439.141 223.355 438.682 223.815C438.452 224.045 438.145 224.121 437.839 224.121Z" fill="white"/>
<path d="M456.802 187.042C456.802 195.47 449.906 202.366 441.401 202.366C432.896 202.366 426 195.47 426 187.042C426 178.537 432.896 171.641 441.401 171.641C449.906 171.641 456.802 178.537 456.802 187.042Z" fill="#0A4B70"/>
<path d="M596.065 181.29H506.186C502.815 181.29 500.057 178.531 500.057 175.16V161.061C500.057 157.69 502.815 154.932 506.186 154.932H596.065C599.436 154.932 602.195 157.69 602.195 161.061V175.16C602.195 178.531 599.436 181.29 596.065 181.29Z" fill="#0A4B70"/>
<path d="M512.7 175.007C512.291 175.007 511.959 174.854 511.704 174.547C511.499 174.292 511.397 173.934 511.397 173.474L511.78 170.103C511.832 170.001 511.832 169.95 511.78 169.95C511.678 169.899 511.602 169.899 511.551 169.95L508.716 172.019C508.358 172.274 508 172.351 507.643 172.249C507.285 172.197 506.979 171.993 506.723 171.636C506.468 171.176 506.417 170.767 506.57 170.41C506.723 170.052 507.004 169.797 507.413 169.643L510.554 168.264C510.657 168.213 510.708 168.162 510.708 168.111C510.708 168.06 510.657 168.009 510.554 167.958L507.413 166.578C507.004 166.374 506.749 166.093 506.647 165.736C506.493 165.378 506.519 164.995 506.723 164.586C506.979 164.229 507.285 164.024 507.643 163.973C508 163.871 508.358 163.948 508.716 164.203L511.551 166.272C511.602 166.323 511.678 166.323 511.78 166.272C511.832 166.272 511.832 166.221 511.78 166.119L511.397 162.747C511.397 162.288 511.525 161.93 511.78 161.675C512.036 161.368 512.368 161.215 512.777 161.215C513.185 161.215 513.517 161.368 513.773 161.675C514.028 161.93 514.13 162.288 514.079 162.747L513.696 166.119C513.645 166.221 513.645 166.272 513.696 166.272C513.798 166.323 513.875 166.323 513.926 166.272L516.761 164.203C517.118 163.948 517.476 163.871 517.834 163.973C518.242 164.024 518.549 164.229 518.753 164.586C519.008 165.046 519.06 165.455 518.906 165.812C518.753 166.17 518.472 166.425 518.063 166.578L514.922 167.958C514.871 168.009 514.845 168.06 514.845 168.111C514.845 168.162 514.871 168.213 514.922 168.264L518.063 169.643C518.472 169.848 518.753 170.129 518.906 170.486C519.008 170.844 518.957 171.227 518.753 171.636C518.549 171.993 518.242 172.197 517.834 172.249C517.476 172.351 517.118 172.274 516.761 172.019L513.926 169.95C513.875 169.899 513.798 169.899 513.696 169.95C513.645 169.95 513.645 170.001 513.696 170.103L514.079 173.474C514.13 173.934 514.028 174.292 513.773 174.547C513.466 174.854 513.109 175.007 512.7 175.007Z" fill="white"/>
<path d="M531.242 175.007C530.885 175.007 530.578 174.854 530.323 174.547C530.068 174.292 529.965 173.934 530.016 173.474L530.4 170.103C530.4 170.001 530.374 169.95 530.323 169.95C530.272 169.899 530.195 169.899 530.093 169.95L527.335 172.019C526.977 172.274 526.62 172.351 526.262 172.249C525.853 172.197 525.547 171.993 525.342 171.636C525.087 171.176 525.036 170.767 525.189 170.41C525.342 170.052 525.598 169.797 525.955 169.643L529.097 168.264C529.199 168.213 529.25 168.162 529.25 168.111C529.25 168.06 529.199 168.009 529.097 167.958L525.955 166.578C525.547 166.374 525.291 166.093 525.189 165.736C525.087 165.378 525.138 164.995 525.342 164.586C525.547 164.229 525.853 164.024 526.262 163.973C526.62 163.871 526.977 163.948 527.335 164.203L530.093 166.272C530.195 166.323 530.272 166.323 530.323 166.272C530.374 166.272 530.4 166.221 530.4 166.119L530.016 162.747C529.965 162.288 530.068 161.93 530.323 161.675C530.578 161.368 530.936 161.215 531.396 161.215C531.753 161.215 532.085 161.368 532.392 161.675C532.647 161.93 532.724 162.288 532.622 162.747L532.239 166.119C532.239 166.221 532.264 166.272 532.315 166.272C532.366 166.323 532.443 166.323 532.545 166.272L535.303 164.203C535.661 163.948 536.044 163.871 536.453 163.973C536.81 164.024 537.091 164.229 537.296 164.586C537.551 165.046 537.602 165.455 537.449 165.812C537.296 166.17 537.04 166.425 536.683 166.578L533.541 167.958C533.439 168.009 533.388 168.06 533.388 168.111C533.388 168.162 533.439 168.213 533.541 168.264L536.683 169.643C537.091 169.848 537.347 170.129 537.449 170.486C537.602 170.844 537.551 171.227 537.296 171.636C537.091 171.993 536.81 172.197 536.453 172.249C536.044 172.351 535.661 172.274 535.303 172.019L532.545 169.95C532.443 169.899 532.366 169.899 532.315 169.95C532.264 169.95 532.239 170.001 532.239 170.103L532.622 173.474C532.724 173.934 532.622 174.292 532.315 174.547C532.06 174.854 531.702 175.007 531.242 175.007Z" fill="white"/>
<path d="M549.862 175.007C549.453 175.007 549.121 174.854 548.865 174.547C548.61 174.292 548.508 173.934 548.559 173.474L548.942 170.103C548.993 170.001 548.993 169.95 548.942 169.95C548.84 169.899 548.763 169.899 548.712 169.95L545.877 172.019C545.52 172.274 545.162 172.351 544.804 172.249C544.447 172.197 544.14 171.993 543.885 171.636C543.63 171.176 543.578 170.767 543.732 170.41C543.885 170.052 544.166 169.797 544.575 169.643L547.716 168.264C547.818 168.213 547.869 168.162 547.869 168.111C547.869 168.06 547.818 168.009 547.716 167.958L544.575 166.578C544.166 166.374 543.91 166.093 543.808 165.736C543.655 165.378 543.681 164.995 543.885 164.586C544.14 164.229 544.447 164.024 544.804 163.973C545.162 163.871 545.52 163.948 545.877 164.203L548.712 166.272C548.763 166.323 548.84 166.323 548.942 166.272C548.993 166.272 548.993 166.221 548.942 166.119L548.559 162.747C548.559 162.288 548.687 161.93 548.942 161.675C549.197 161.368 549.529 161.215 549.938 161.215C550.347 161.215 550.679 161.368 550.934 161.675C551.19 161.93 551.292 162.288 551.241 162.747L550.858 166.119C550.807 166.221 550.807 166.272 550.858 166.272C550.96 166.323 551.036 166.323 551.087 166.272L553.923 164.203C554.28 163.948 554.638 163.871 554.995 163.973C555.404 164.024 555.71 164.229 555.915 164.586C556.17 165.046 556.221 165.455 556.068 165.812C555.915 166.17 555.634 166.425 555.225 166.578L552.084 167.958C552.032 168.009 552.007 168.06 552.007 168.111C552.007 168.162 552.032 168.213 552.084 168.264L555.225 169.643C555.634 169.848 555.915 170.129 556.068 170.486C556.17 170.844 556.119 171.227 555.915 171.636C555.71 171.993 555.404 172.197 554.995 172.249C554.638 172.351 554.28 172.274 553.923 172.019L551.087 169.95C551.036 169.899 550.96 169.899 550.858 169.95C550.807 169.95 550.807 170.001 550.858 170.103L551.241 173.474C551.292 173.934 551.19 174.292 550.934 174.547C550.628 174.854 550.27 175.007 549.862 175.007Z" fill="white"/>
<path d="M568.405 175.007C568.047 175.007 567.74 174.854 567.485 174.547C567.23 174.292 567.127 173.934 567.179 173.474L567.562 170.103C567.562 170.001 567.536 169.95 567.485 169.95C567.434 169.899 567.357 169.899 567.255 169.95L564.497 172.019C564.139 172.274 563.782 172.351 563.424 172.249C563.015 172.197 562.709 171.993 562.505 171.636C562.249 171.176 562.198 170.767 562.351 170.41C562.505 170.052 562.76 169.797 563.118 169.643L566.259 168.264C566.361 168.213 566.412 168.162 566.412 168.111C566.412 168.06 566.361 168.009 566.259 167.958L563.118 166.578C562.709 166.374 562.453 166.093 562.351 165.736C562.249 165.378 562.3 164.995 562.505 164.586C562.709 164.229 563.015 164.024 563.424 163.973C563.782 163.871 564.139 163.948 564.497 164.203L567.255 166.272C567.357 166.323 567.434 166.323 567.485 166.272C567.536 166.272 567.562 166.221 567.562 166.119L567.179 162.747C567.127 162.288 567.23 161.93 567.485 161.675C567.74 161.368 568.098 161.215 568.558 161.215C568.915 161.215 569.247 161.368 569.554 161.675C569.809 161.93 569.886 162.288 569.784 162.747L569.401 166.119C569.401 166.221 569.426 166.272 569.477 166.272C569.528 166.323 569.605 166.323 569.707 166.272L572.466 164.203C572.823 163.948 573.206 163.871 573.615 163.973C573.972 164.024 574.253 164.229 574.458 164.586C574.713 165.046 574.764 165.455 574.611 165.812C574.458 166.17 574.202 166.425 573.845 166.578L570.703 167.958C570.601 168.009 570.55 168.06 570.55 168.111C570.55 168.162 570.601 168.213 570.703 168.264L573.845 169.643C574.253 169.848 574.509 170.129 574.611 170.486C574.764 170.844 574.713 171.227 574.458 171.636C574.253 171.993 573.972 172.197 573.615 172.249C573.206 172.351 572.823 172.274 572.466 172.019L569.707 169.95C569.605 169.899 569.528 169.899 569.477 169.95C569.426 169.95 569.401 170.001 569.401 170.103L569.784 173.474C569.886 173.934 569.784 174.292 569.477 174.547C569.222 174.854 568.864 175.007 568.405 175.007Z" fill="white"/>
<path d="M587.024 175.007C586.615 175.007 586.283 174.854 586.028 174.547C585.772 174.292 585.67 173.934 585.721 173.474L586.104 170.103C586.155 170.001 586.155 169.95 586.104 169.95C586.002 169.899 585.925 169.899 585.874 169.95L583.039 172.019C582.682 172.274 582.324 172.351 581.967 172.249C581.609 172.197 581.302 171.993 581.047 171.636C580.792 171.176 580.741 170.767 580.894 170.41C581.047 170.052 581.328 169.797 581.737 169.643L584.878 168.264C584.929 168.213 584.955 168.162 584.955 168.111C584.955 168.06 584.929 168.009 584.878 167.958L581.737 166.578C581.328 166.374 581.073 166.093 580.97 165.736C580.817 165.378 580.843 164.995 581.047 164.586C581.302 164.229 581.609 164.024 581.967 163.973C582.324 163.871 582.682 163.948 583.039 164.203L585.874 166.272C585.925 166.323 586.002 166.323 586.104 166.272C586.155 166.272 586.155 166.221 586.104 166.119L585.721 162.747C585.67 162.288 585.798 161.93 586.104 161.675C586.36 161.368 586.692 161.215 587.1 161.215C587.509 161.215 587.841 161.368 588.096 161.675C588.352 161.93 588.454 162.288 588.403 162.747L588.02 166.119C587.969 166.221 587.969 166.272 588.02 166.272C588.122 166.323 588.198 166.323 588.25 166.272L591.085 164.203C591.442 163.948 591.8 163.871 592.157 163.973C592.566 164.024 592.872 164.229 593.077 164.586C593.332 165.046 593.383 165.455 593.23 165.812C593.077 166.17 592.796 166.425 592.387 166.578L589.246 167.958C589.195 168.009 589.169 168.06 589.169 168.111C589.169 168.162 589.195 168.213 589.246 168.264L592.387 169.643C592.796 169.848 593.077 170.129 593.23 170.486C593.332 170.844 593.281 171.227 593.077 171.636C592.872 171.993 592.566 172.197 592.157 172.249C591.8 172.351 591.442 172.274 591.085 172.019L588.25 169.95C588.198 169.899 588.122 169.899 588.02 169.95C587.969 169.95 587.969 170.001 588.02 170.103L588.403 173.474C588.454 173.934 588.352 174.292 588.096 174.547C587.79 174.854 587.432 175.007 587.024 175.007Z" fill="#E31D39"/>
<path opacity="0.2" d="M361.195 423.341H360.406H225.978V431.769H360.406H361.195H603.728V423.341H361.195Z" fill="black"/>
<path d="M436.963 190.76C436.307 190.76 435.723 190.653 435.212 190.44C434.703 190.224 434.304 189.93 434.014 189.558C433.724 189.186 433.58 188.764 433.58 188.293C433.58 187.929 433.662 187.595 433.827 187.291C433.994 186.984 434.222 186.73 434.509 186.528C434.795 186.324 435.116 186.193 435.472 186.136V186.077C435.006 185.983 434.628 185.757 434.338 185.399C434.048 185.038 433.903 184.619 433.903 184.142C433.903 183.69 434.036 183.288 434.3 182.936C434.564 182.581 434.926 182.303 435.386 182.101C435.849 181.896 436.375 181.794 436.963 181.794C437.551 181.794 438.075 181.896 438.536 182.101C438.999 182.305 439.362 182.585 439.626 182.94C439.891 183.293 440.024 183.693 440.027 184.142C440.024 184.622 439.876 185.041 439.584 185.399C439.291 185.757 438.916 185.983 438.459 186.077V186.136C438.808 186.193 439.125 186.324 439.409 186.528C439.696 186.73 439.923 186.984 440.091 187.291C440.261 187.595 440.348 187.929 440.351 188.293C440.348 188.764 440.202 189.186 439.912 189.558C439.622 189.93 439.222 190.224 438.71 190.44C438.202 190.653 437.619 190.76 436.963 190.76ZM436.963 189.405C437.256 189.405 437.511 189.352 437.73 189.247C437.949 189.139 438.119 188.991 438.241 188.804C438.366 188.614 438.429 188.395 438.429 188.148C438.429 187.895 438.365 187.672 438.237 187.479C438.109 187.283 437.936 187.129 437.717 187.018C437.499 186.905 437.247 186.848 436.963 186.848C436.682 186.848 436.43 186.905 436.209 187.018C435.987 187.129 435.813 187.283 435.685 187.479C435.56 187.672 435.497 187.895 435.497 188.148C435.497 188.395 435.558 188.614 435.68 188.804C435.803 188.991 435.974 189.139 436.196 189.247C436.418 189.352 436.673 189.405 436.963 189.405ZM436.963 185.506C437.207 185.506 437.425 185.456 437.615 185.357C437.805 185.257 437.955 185.119 438.062 184.943C438.17 184.767 438.224 184.564 438.224 184.334C438.224 184.107 438.17 183.908 438.062 183.737C437.955 183.564 437.807 183.429 437.619 183.332C437.432 183.233 437.213 183.183 436.963 183.183C436.716 183.183 436.497 183.233 436.307 183.332C436.116 183.429 435.967 183.564 435.859 183.737C435.754 183.908 435.702 184.107 435.702 184.334C435.702 184.564 435.756 184.767 435.864 184.943C435.972 185.119 436.121 185.257 436.311 185.357C436.501 185.456 436.719 185.506 436.963 185.506ZM444.828 190.76C444.226 190.76 443.689 190.649 443.218 190.428C442.749 190.206 442.377 189.901 442.101 189.511C441.826 189.122 441.682 188.676 441.671 188.173H443.461C443.48 188.511 443.623 188.786 443.887 188.996C444.151 189.206 444.465 189.311 444.828 189.311C445.118 189.311 445.374 189.247 445.596 189.119C445.82 188.989 445.995 188.808 446.12 188.578C446.248 188.345 446.311 188.078 446.311 187.777C446.311 187.47 446.246 187.2 446.115 186.967C445.988 186.734 445.81 186.553 445.583 186.422C445.355 186.291 445.096 186.224 444.803 186.222C444.547 186.222 444.299 186.274 444.057 186.379C443.819 186.484 443.632 186.628 443.499 186.81L441.858 186.516L442.272 181.913H447.607V183.422H443.793L443.567 185.608H443.618C443.772 185.392 444.003 185.213 444.313 185.071C444.623 184.929 444.969 184.858 445.353 184.858C445.878 184.858 446.347 184.982 446.759 185.229C447.171 185.476 447.496 185.815 447.735 186.247C447.973 186.676 448.091 187.17 448.088 187.73C448.091 188.318 447.955 188.841 447.679 189.298C447.407 189.753 447.025 190.111 446.533 190.372C446.044 190.631 445.476 190.76 444.828 190.76Z" fill="white"/>
</svg>
